<svg xmlns="http://www.w3.org/2000/svg" viewBox="0 0 974 202.4"><defs><style>.cls-1{fill:#32a8ea;}</style></defs><g id="Capa_2" data-name="Capa 2"><g id="Capa_3" data-name="Capa 3"><polygon class="cls-1" points="974 38.8 950 38.8 950 60.8 924.5 60.8 924.5 84.8 904 84.8 904 118.8 886.2 118.8 886.2 102.8 858.1 102.8 858.1 66.8 823.6 84.8 823.6 59 808.2 59 808.2 15 789.1 15 789.1 0 768.6 0 768.6 37 750.8 37 750.8 107.8 726.5 107.8 726.5 89.8 708.6 89.8 708.6 74.8 675.4 74.8 675.4 103.8 657.5 103.8 657.5 80.8 628.1 80.8 628.1 94.8 612.8 94.8 612.8 108.8 596.2 108.8 596.2 134.8 577 134.8 577 84.8 547.6 84.8 547.6 108.8 532.3 108.8 532.3 134.8 513.2 134.8 513.2 106.9 486.3 127.8 486.3 108.8 467.2 108.8 467.2 97.7 445.5 81 445.5 141.8 428.8 141.8 428.8 74.8 400.7 74.8 400.7 95.8 381.6 95.8 381.6 114.8 361.1 114.8 361.1 141.8 322.8 141.8 322.8 108.8 290.9 108.8 290.9 78.8 275.6 78.8 275.6 64.8 250 64.8 250 134.8 228.3 134.8 228.3 106.5 200.2 84.9 200.2 92.8 164.4 92.8 164.4 69.8 151.7 69.8 151.7 61.8 124.8 61.8 124.8 81.8 115.9 81.8 115.9 89.8 108.2 89.8 108.2 95.8 82.7 95.8 82.7 87.8 59.7 87.8 59.7 97.8 34.1 97.8 34.1 111.8 21.4 111.8 21.4 88.8 0 88.8 0 202.4 974 202.4 974 38.8"/></g></g></svg>