<svg xmlns="http://www.w3.org/2000/svg" viewBox="0 0 974 391.5"><defs><style>.cls-1,.cls-18,.cls-19,.cls-20,.cls-21,.cls-7{fill:none;}.cls-2{fill:#32a8ea;}.cls-3{fill:#433d3a;}.cls-4{fill:#2a3b47;}.cls-5{fill:#31434f;}.cls-6{fill:#554f4c;}.cls-18,.cls-19,.cls-20,.cls-7{stroke:#85cbe9;stroke-width:2.92px;}.cls-21,.cls-7{stroke-miterlimit:10;}.cls-8{fill:#85cbe9;}.cls-9{fill:#3871a3;}.cls-10{fill:#fff;}.cls-11{fill:#4b6c87;}.cls-12{fill:#7093ad;}.cls-13{fill:#3c4f5e;}.cls-14{fill:#3f5663;}.cls-15{fill:#8bc53f;}.cls-16{fill:#7ba841;}.cls-17{fill:#a8cd6e;}.cls-18,.cls-19,.cls-20,.cls-21{stroke-linecap:round;}.cls-18,.cls-19,.cls-20{stroke-linejoin:round;}.cls-18{stroke-dasharray:6.82;}.cls-20{stroke-dasharray:6.84 6.84;}.cls-21{stroke:#3871a3;stroke-width:2.36px;}.cls-22{fill:#91c8e6;}.cls-23{fill:#1f6f93;}.cls-24{fill:#e9e5ca;}.cls-25{fill:#faaf40;}.cls-26{fill:#c57829;}.cls-27{fill:#f1f1f2;}.cls-28{fill:#f6921e;}.cls-29{fill:#5a4a42;}.cls-30{fill:#c7b299;}.cls-31{fill:#ad9982;}.cls-32{fill:#ffc271;}.cls-33{fill:#ffd39f;}.cls-34{fill:#776968;}.cls-35{fill:#385a96;}.cls-36{fill:#4e7cbf;}.cls-37{fill:#554b48;}.cls-38{fill:#4264ac;}.cls-39{fill:#ff9700;}.cls-40{fill:#ff3e55;}.cls-41{fill:#ff647e;}.cls-42{fill:#d14261;}.cls-43{fill:#534741;}.cls-44{fill:#e0682e;}.cls-45{fill:#b79f86;}.cls-46{fill:#ffbb09;}.cls-47{fill:#ff9e00;}.cls-48{fill:#0097d8;}.cls-49{fill:#147ead;}</style></defs><g id="Capa_2" data-name="Capa 2"><g id="Large"><polygon class="cls-1" points="21.4 301 34.1 301 34.1 287 59.7 287 59.7 277 82.7 277 82.7 285 108.2 285 108.2 279 115.9 279 115.9 271 124.8 271 124.8 251 151.7 251 151.7 259 164.4 259 164.4 282 200.2 282 200.2 274.1 228.3 295.6 228.3 324 250 324 250 254 275.6 254 275.6 268 290.9 268 290.9 298 322.8 298 322.8 331 361.1 331 361.1 304 381.6 304 381.6 285 400.7 285 400.7 264 428.8 264 428.8 331 445.5 331 445.5 270.2 467.2 286.9 467.2 298 486.3 298 486.3 317 513.2 296 513.2 324 532.3 324 532.3 298 547.6 298 547.6 274 577 274 577 324 596.2 324 596.2 298 612.8 298 612.8 284 628.1 284 628.1 270 657.5 270 657.5 293 675.4 293 675.4 264 708.6 264 708.6 279 726.5 279 726.5 297 750.8 297 750.8 226.2 768.6 226.2 768.6 189.2 789.1 189.2 789.1 204.2 808.2 204.2 808.2 248.2 823.6 248.2 823.6 274 858.1 256 858.1 292 886.2 292 886.2 308 904 308 904 274 924.5 274 924.5 250 950 250 950 228 974 228 974 0 0 0 0 278 21.4 278 21.4 301"/><polygon class="cls-2" points="974 228 950 228 950 250 924.5 250 924.5 274 904 274 904 308 886.2 308 886.2 292 858.1 292 858.1 256 823.6 274 823.6 248.2 808.2 248.2 808.2 204.2 789.1 204.2 789.1 189.2 768.6 189.2 768.6 226.2 750.8 226.2 750.8 297 726.5 297 726.5 279 708.6 279 708.6 264 675.4 264 675.4 293 657.5 293 657.5 270 628.1 270 628.1 284 612.8 284 612.8 298 596.2 298 596.2 324 577 324 577 274 547.6 274 547.6 298 532.3 298 532.3 324 513.2 324 513.2 296 486.3 317 486.3 298 467.2 298 467.2 286.9 445.5 270.2 445.5 331 428.8 331 428.8 264 400.7 264 400.7 285 381.6 285 381.6 304 361.1 304 361.1 331 322.8 331 322.8 298 290.9 298 290.9 268 275.6 268 275.6 254 250 254 250 324 228.3 324 228.3 295.6 200.2 274.1 200.2 282 164.4 282 164.4 259 151.7 259 151.7 251 124.8 251 124.8 271 115.9 271 115.9 279 108.2 279 108.2 285 82.7 285 82.7 277 59.7 277 59.7 287 34.1 287 34.1 301 21.4 301 21.4 278 0 278 0 391.5 974 391.5 974 228"/><path class="cls-3" d="M506.8,177.7s0,5.9,1.2,6.9,4.5.9,5.1,2.5.4,23.7.4,23.7h1.8s.6-23.1-.5-24.7-5.1-2.3-5.6-3.5-.3-4.9-.3-4.9Z"/><path class="cls-4" d="M502.3,176.1s0,2.1.9,2.6c4.1,0,9.3.1,10.1-.2s.9-2.3.9-2.3Z"/><path class="cls-4" d="M502,164.7s-.6-8.7-.1-9.1a.7.7,0,0,1,1.1.2c.2.3.2,9,.2,9Z"/><path class="cls-4" d="M512.1,164.7s-.6-8.6-.1-9,.9-.1,1.1.2.2,8.9.2,8.9Z"/><path class="cls-4" d="M517.5,165.1s-.3,2.2-.7,4.4a20.4,20.4,0,0,1-1.1,4.3c-.5.9-4.8.3-14.2.3a11.8,11.8,0,0,1-1.4-4c-.6-2.5-1-5.2-1-5.2Z"/><path class="cls-3" d="M497.5,163.3c-.5.3-.2,3.2.2,3.3s20.5.6,21-.2.5-2.9-.1-3.1S498.4,162.7,497.5,163.3Z"/><path class="cls-5" d="M516.8,169.5a20.4,20.4,0,0,1-1.1,4.3c-.5.9-4.8.3-14.2.3a11.8,11.8,0,0,1-1.4-4Z"/><path class="cls-6" d="M516.4,175.2c-.1.7-.2,1.5-.4,1.6s-15.1.4-15.4-.1a4.4,4.4,0,0,1-.5-2.5c0-.3.1-.5.2-.5s15.6-.3,15.9,0S516.4,174.5,516.4,175.2Z"/><path class="cls-3" d="M516.4,175.2c-.1.7-.2,1.5-.4,1.6s-15.1.4-15.4-.1a4.4,4.4,0,0,1-.5-2.5,3.8,3.8,0,0,0,1.6,1.4Z"/><path class="cls-7" d="M603.9,232.3l-.3,46.7a7,7,0,0,1-7.1,7.1l-75.3-.3"/><path class="cls-8" d="M604.3,237.8h0a6.2,6.2,0,0,1-6.2-6.2h0a6.3,6.3,0,0,1,6.2-6.1h0a6.1,6.1,0,0,1,6.1,6.2h0A6.1,6.1,0,0,1,604.3,237.8Z"/><path class="cls-9" d="M604.3,234.5h0a2.8,2.8,0,0,1-2.8-2.8h0a2.8,2.8,0,0,1,2.8-2.9h0a2.9,2.9,0,0,1,2.8,2.9h0A2.9,2.9,0,0,1,604.3,234.5Z"/><path class="cls-7" d="M371.7,182.3v28.8a4.3,4.3,0,0,0,4.3,4.3h21.5a4.4,4.4,0,0,1,4.4,4.4l-.2,29.7A4.4,4.4,0,0,0,406,254l78.6.4a4.4,4.4,0,0,1,4.4,4.3v25.4"/><path class="cls-7" d="M505.4,277l.2-43.4a4.4,4.4,0,0,1,4.5-4.5l43.8.2a4.6,4.6,0,0,0,4.5-4.6l.2-39.6"/><path class="cls-10" d="M594.4,250.2c.1-.2,3.2-6.6-5.7-7.5.6-4.4-1.6-8.3-4.3-8.9a12.3,12.3,0,0,0-4.9-.1s-1.4-4.9-4.9-5.3-5.9-.1-7.7,3.4-.4,5.8-.4,5.8-2.2-1.7-5.7.8a6.4,6.4,0,0,0-2.9,6.1s-5.1.2-4.8,5.4Z"/><path class="cls-11" d="M545.6,345.6c-1,.4-16,.5-35.5.5H490.3l-67-.6c-.1-.8,2.4-4.3,5.4-8.2l.7-.9c4.6-6,10.2-12.6,10.2-12.6l89.8,1.4s6.1,6.1,10.8,11.7l.7.9C543.9,341.3,546.1,344.5,545.6,345.6Z"/><path class="cls-12" d="M545.6,345.6c-1,.4-16,.5-35.5.5H490.3l-67-.6c-.1-.8,2.4-4.3,5.4-8.2l112.2.5C543.9,341.3,546.1,344.5,545.6,345.6Z"/><path class="cls-4" d="M438.6,275c-1.4,2.7,0,50.1,0,50.1s89,1.1,90.9.1,1.4-49.4.5-50S441.3,274.1,438.6,275Z"/><path class="cls-13" d="M439.5,276.4c-1.3,2.5.1,47.3.1,47.3s87.1,1,88.9.1,1.4-46.6.5-47.2S442.2,275.5,439.5,276.4Z"/><path class="cls-5" d="M524.5,319.5c-.9.2-14.7.3-30.7.4H471.9c-15.4-.1-28.3-.2-28.7-.6a38.3,38.3,0,0,1-.4-4.3c-.2-4.1-.4-10.7-.5-17-.1-8.9.1-17.4.9-17.7s13.4-.6,28.4-.7h13.3c10.3.1,20.5.1,28,.3l7.5.2,3.9.3C525.4,281.4,526,318,524.5,319.5Z"/><path class="cls-14" d="M484.9,279.6,442.8,315c-.2-4.1-.4-10.7-.5-17l29.3-18.4Z"/><path class="cls-14" d="M520.4,280.1l-26.6,39.8H471.9c7.8-7.7,37.7-37.3,41-40Z"/><path class="cls-10" d="M498.5,302.7h-28a2.2,2.2,0,0,1-2.2-2.3h0a2.3,2.3,0,0,1,2.3-2.3l27.9.2a2.2,2.2,0,0,1,2.2,2.2h0A2.2,2.2,0,0,1,498.5,302.7Z"/><path class="cls-15" d="M491.8,302.1H470.9a1.7,1.7,0,0,1-1.6-1.7h0a1.7,1.7,0,0,1,1.7-1.7h20.8a1.7,1.7,0,0,1,1.7,1.7h0A1.7,1.7,0,0,1,491.8,302.1Z"/><path class="cls-16" d="M470.6,301.4a1.2,1.2,0,0,1-.6-1.6,1.4,1.4,0,0,1,1.5-.8c.2,0,18.2-.1,18.7.3s.1.8-2.6.7-15.4-.2-15.9,0S471.8,301.6,470.6,301.4Z"/><path class="cls-17" d="M474.9,300.5c-.1,0-2.7-.2-2.9.1s.1.8,1.1.8,9,.2,9-.2S474.9,300.5,474.9,300.5Z"/><path class="cls-4" d="M423.3,345.4s-.1,4.6,1.2,5c8.5.2,118.4,1.3,121.2.5.1-2.7-.1-5.3-.1-5.3Z"/><path class="cls-5" d="M502.5,344.2l-36.1-.2c-.4,0-.7-.2-.6-.4l1.5-4.8a1,1,0,0,1,1-.5l32.6.2a1,1,0,0,1,.9.4l1.4,4.9c0,.2-.3.4-.7.4"/><path class="cls-5" d="M443.4,328.2h-3.9c-.5,0-.9-.1-.8-.2l.2-.3,1.1-.2h3.9c.5,0,.9.1.9.2l-.3.3c0,.1-.5.2-1.1.2"/><path class="cls-5" d="M450,328.2h-3.9c-.5,0-.9-.1-.8-.2l.2-.3c0-.1.5-.2,1.1-.2h3.8c.6,0,1,.1.9.2l-.2.3c0,.1-.5.2-1.1.2"/><path class="cls-5" d="M456.6,328.2h-3.9c-.5,0-.9-.1-.9-.2l.2-.3h5c.5,0,.9.1.9.2l-.2.3h-1.1"/><path class="cls-5" d="M463.2,328.3h-3.9c-.5,0-.9-.1-.9-.2l.2-.3c0-.1.5-.2,1-.2h3.9c.5,0,.9.1.9.2v.3c0,.1-.5.2-1.1.2"/><path class="cls-5" d="M469.8,328.3h-3.9c-.5,0-.9-.1-.9-.2v-.3c0-.1.5-.2,1-.2H470c.6,0,1,.1.9.2v.3c0,.1-.5.2-1.1.2"/><path class="cls-5" d="M476.4,328.3h-3.9c-.5,0-.9-.1-.9-.2v-.3c0-.1.4-.1,1-.1h3.8c.6,0,1,.1,1,.2v.3h-1.1"/><path class="cls-5" d="M483,328.4h-3.9c-.5,0-.9-.1-.9-.2v-.3l1-.2h3.9c.5,0,.9.1.9.2v.3c0,.1-.4.2-1,.2"/><path class="cls-5" d="M489.7,328.4h-4c-.5,0-1-.1-1-.2v-.3l1-.2h3.9l1,.2v.3c0,.1-.4.2-.9.2"/><path class="cls-5" d="M496.3,328.4h-4c-.5,0-1-.1-1-.2v-.3h4.8c.6,0,1,.1,1,.2v.3h-.9"/><path class="cls-5" d="M502.9,328.5h-4c-.5,0-1-.1-1-.2V328c0-.1.4-.2,1-.2h3.8c.6,0,1.1.1,1.1.2v.3c0,.1-.4.2-.9.2"/><path class="cls-5" d="M509.5,328.5h-4c-.5,0-1-.1-1-.2V328c0-.1.4-.2.9-.2h3.9c.5,0,1,.1,1,.2l.2.3c0,.1-.4.2-.9.2"/><path class="cls-5" d="M516.1,328.5h-3.9c-.6,0-1.1-.1-1.1-.2l-.2-.3c0-.1.4-.1.9-.1h3.9l1.1.2.2.3c0,.1-.4.1-.9.1"/><path class="cls-5" d="M522.7,328.6h-3.9c-.6,0-1.1-.1-1.1-.2l-.2-.3c-.1-.1.3-.2.9-.2h3.8c.6,0,1.1.1,1.1.2l.2.3c.1.1-.3.2-.8.2"/><path class="cls-5" d="M529.3,328.6h-3.9a2.5,2.5,0,0,1-1.2-.2l-.2-.3c0-.1.3-.2.9-.2h3.9l1.1.2.2.3c.1.1-.3.2-.8.2"/><path class="cls-5" d="M443.1,329.3h-5c-.2,0-.2-.1-.2-.1l.7-.9s.2-.1.3,0H444l-.7.9c0,.1-.1.1-.2.1"/><path class="cls-5" d="M452.3,330.6H447l.6-1h5.5l-.6,1h-.2"/><path class="cls-5" d="M453.1,331.8h-5.4l.6-1.1h5.6l-.5,1h-.3"/><path class="cls-5" d="M456,333.2h-5.5l.6-1.1h5.5c.1,0,.2,0,.2.1l-.5,1H456"/><path class="cls-5" d="M439.2,334.6h-5.4c-.1,0-.2,0-.2-.1l1-1.2h5.8l-.9,1.3h-.3"/><path class="cls-5" d="M446.5,334.7h-5.7l.9-1.3h5.8l-.7,1.2h-.3"/><path class="cls-5" d="M453.5,334.7h-5.7l.8-1.2h5.8l-.6,1.2h-.3"/><path class="cls-5" d="M462.4,334.7h-7.5l.6-1.2h7.3c.2,0,.3,0,.3.1l-.4,1.2h-.3"/><path class="cls-5" d="M506.4,335h-7.5l-.2-1.3h7.6l.4,1.2h-.3"/><path class="cls-5" d="M513.7,335h-5.4c-.1,0-.3,0-.3-.1l-.4-1.2h5.7l.6,1.3h-.2"/><path class="cls-5" d="M497.5,334.9H464.4l-.6-.2.4-1.1h.7l32.3.2h.6l.3,1.1h-.6"/><path class="cls-5" d="M462.9,333.2h-5.5l.5-1h5.7l-.4,1.1h-.3"/><path class="cls-5" d="M469.9,333.2h-5.6l.4-1.1h5.7l-.3,1.1h-.2"/><path class="cls-5" d="M476.8,333.3h-5.6l.3-1.1h5.7l-.2,1c0,.1-.1.1-.2.1"/><path class="cls-5" d="M483.7,333.3h-5.3c-.2,0-.3,0-.3-.1v-1h5.7v1.1h-.2"/><path class="cls-5" d="M490.6,333.3H485v-1.1h5.7v1.1h-.2"/><path class="cls-5" d="M497.5,333.4H492l-.2-1.1h5.7l.3,1h-.3"/><path class="cls-5" d="M504.4,333.4h-5.5l-.3-1h5.7l.4,1.1h-.3"/><path class="cls-5" d="M511.4,333.5h-5.6l-.4-1.1h5.7l.5,1.1h-.2"/><path class="cls-5" d="M520.1,335.1h-4.2c-.5,0-1-.1-1-.2l-.2-.3c0-.1.3-.2.9-.2h4.1c.5,0,1,0,1,.1l.2.4c.1.1-.3.2-.8.2"/><path class="cls-5" d="M527.2,335.1H523c-.5,0-1-.1-1-.2l-.2-.3c-.1-.2.3-.2.8-.2h4.1l1.1.2.2.3c.1.1-.3.2-.8.2"/><path class="cls-5" d="M526.6,334.3h-4a2,2,0,0,1-1.1-.2l-.2-.3c-.1-.1.3-.2.8-.2h4.1c.5,0,1,.1,1,.2l.3.3c0,.1-.3.2-.9.2"/><path class="cls-5" d="M534.3,335.1h-4.2l-1.1-.2-.2-.3c-.1-.1.3-.2.8-.2h4.1c.6,0,1.1.1,1.1.2l.3.3c.1.1-.3.2-.8.2"/><path class="cls-5" d="M459.9,331.9h-5.4l.5-1h5.6l-.4,1h-.3"/><path class="cls-5" d="M466.8,331.9h-5.5l.4-1h5.6l-.3,1.1h-.2"/><path class="cls-5" d="M473.6,331.9h-5.4l.2-1.1H474l-.2,1h-.2"/><path class="cls-5" d="M480.4,332h-5.5l.2-1h5.6v1h-.2"/><path class="cls-5" d="M487.2,332H482c-.1,0-.2,0-.2-.1v-1h5.6V332h-.2"/><path class="cls-5" d="M493.7,332h-5.4v-1.1h5.6l.2,1h-.3"/><path class="cls-5" d="M500.5,332.1h-5.4l-.2-1h5.6l.2,1h-.2"/><path class="cls-5" d="M507.3,332.1h-5.2c-.2,0-.3,0-.3-.1l-.3-1h5.6l.4,1.1h-.2"/><path class="cls-5" d="M514,332.1h-5.5l-.4-1c0-.1.1-.1.3-.1h5.3l.5,1H514"/><path class="cls-5" d="M520.7,332.2h-5.4l-.6-1h5.6l.6,1c.1.1,0,.1-.2.1"/><path class="cls-5" d="M518.2,333.5h-5.6l-.5-1h5.7l.6,1c0,.1-.1.1-.2.1"/><path class="cls-5" d="M532.6,332.2H522.2l-.6-1h10.5l.8,1h-.3"/><path class="cls-5" d="M533.6,333.6H519.4l-.5-1h14.3l.8,1h-.4"/><path class="cls-5" d="M446.3,331.8H435.9l.8-1H447c.2,0,.3,0,.3.1l-.6.9c0,.1-.2.1-.4.1"/><path class="cls-5" d="M449,333.1H434.7l.8-1h14.2c.2,0,.3,0,.3.1l-.5,1H449"/><path class="cls-5" d="M458.9,330.6h-5.3l.5-1h5.5l-.4.9c0,.1-.1.1-.3.1"/><path class="cls-5" d="M465.5,330.6h-5.1c-.1,0-.2,0-.2-.1l.4-.9h5.5l-.3,1h-.3"/><path class="cls-5" d="M472.2,330.7h-5.3l.3-1h5.4l-.2,1h-.2"/><path class="cls-5" d="M478.8,330.7h-5.3l.2-1h5.5v.9h-.3"/><path class="cls-5" d="M485.5,330.7h-5.4v-.9h5.5v1h-.2"/><path class="cls-5" d="M491.9,330.8h-5.3v-1H492v1h-.2"/><path class="cls-5" d="M498.6,330.8h-5.3l-.2-1h5.3c.1,0,.2,0,.2.1l.2.9c.1.1,0,.1-.2.1"/><path class="cls-5" d="M505.3,330.8h-5.2c-.1,0-.2,0-.2-.1l-.2-.9s0-.1.2-.1h5.2l.4,1h-.2"/><path class="cls-5" d="M511.8,330.9h-5.4l-.3-1h5.4l.5,1h-.2"/><path class="cls-5" d="M518.6,330.9h-5.4l-.5-1h5.5l.6.9h-.2"/><path class="cls-5" d="M525,330.9h-5.3l-.6-.9h5.5l.6,1H525"/><path class="cls-5" d="M531.7,331h-5.3l-.7-1h5.4l.8,1h-.2"/><path class="cls-5" d="M449.7,329.3h-5c-.1,0-.2,0-.2-.1l.6-.9h5.4l-.6.9h-.2"/><path class="cls-5" d="M456.1,329.4h-5.2l.5-.9h5.4l-.5.9h-.2"/><path class="cls-5" d="M462.6,329.4h-5.2l.5-.9h5.3l-.3.9h-.3"/><path class="cls-5" d="M469.1,329.4h-5.3l.4-.9h5.3l-.2,1h-.2"/><path class="cls-5" d="M475.7,329.5h-5.3l.3-.9c0-.1.1-.1.2-.1H476v.9h-.2"/><path class="cls-5" d="M482,329.5h-5.2v-.9h5.4v.9c0,.1-.1.1-.2.1"/><path class="cls-5" d="M488.6,329.5h-5c-.1,0-.2,0-.2-.1v-.9h5.4v1h-.2"/><path class="cls-5" d="M495,329.5h-5.2v-1h5.4v.9H495"/><path class="cls-5" d="M501.6,329.6h-5.2l-.2-.9h5.3l.3.9c0,.1-.1.1-.2.1"/><path class="cls-5" d="M508.2,329.6h-5c-.2,0-.3,0-.3-.1l-.3-.9H508l.4,1h-.2"/><path class="cls-5" d="M514.7,329.6h-5.3l-.4-1h5.4l.5.9h-.2"/><path class="cls-5" d="M520.9,329.7h-5.2l-.5-.9h5.3l.6.9h-.2"/><path class="cls-5" d="M530.3,329.7h-8.2l-.5-.8c0-.1.2-.1.5-.1h8.1l.6.8c.1.1-.2.1-.5.1"/><path class="cls-5" d="M445.1,330.5H437l.6-.9h8.2c.4,0,.6,0,.6.1l-.5.8h-.8"/><path class="cls-7" d="M398.8,341.6H378.7a4.9,4.9,0,0,1-4.8-4.8l.2-97.1a9.6,9.6,0,0,1,9.7-9.6l64.6.3a4.8,4.8,0,0,0,4.8-4.8V210.4"/><path class="cls-8" d="M453.1,213.9h0a6.1,6.1,0,0,1-6.1-6.1h0a6.1,6.1,0,0,1,6.2-6.1h0a6.1,6.1,0,0,1,6.1,6.1h0A6.1,6.1,0,0,1,453.1,213.9Z"/><path class="cls-9" d="M453.2,210.6h0a2.9,2.9,0,0,1-2.9-2.8h0a2.9,2.9,0,0,1,2.9-2.8h0a2.9,2.9,0,0,1,2.8,2.8h0A2.8,2.8,0,0,1,453.2,210.6Z"/><path class="cls-8" d="M371.8,184.4h0a6.1,6.1,0,0,1-6.1-6.2h0a6.1,6.1,0,0,1,6.1-6.1h0a6.2,6.2,0,0,1,6.2,6.2h0A6.2,6.2,0,0,1,371.8,184.4Z"/><path class="cls-9" d="M371.8,181.1h0a2.8,2.8,0,0,1-2.8-2.9h0a2.9,2.9,0,0,1,2.8-2.8h0a2.8,2.8,0,0,1,2.8,2.9h0A2.8,2.8,0,0,1,371.8,181.1Z"/><path class="cls-8" d="M558.7,189h0a6.1,6.1,0,0,1-6.1-6.2h0a6.1,6.1,0,0,1,6.1-6.1h0a6.2,6.2,0,0,1,6.2,6.2h0A6.2,6.2,0,0,1,558.7,189Z"/><path class="cls-9" d="M558.7,185.7h0a2.8,2.8,0,0,1-2.8-2.9h0a2.9,2.9,0,0,1,2.8-2.8h0a2.8,2.8,0,0,1,2.8,2.9h0A2.8,2.8,0,0,1,558.7,185.7Z"/><path class="cls-8" d="M399.9,345h0a3.6,3.6,0,0,1-3.6-3.6h0a3.6,3.6,0,0,1,3.6-3.6h0a3.6,3.6,0,0,1,3.6,3.6h0A3.6,3.6,0,0,1,399.9,345Z"/><path class="cls-8" d="M585,313.4h0a3.6,3.6,0,0,1-3.6-3.6h0a3.7,3.7,0,0,1,3.6-3.7h0a3.8,3.8,0,0,1,3.7,3.7h0A3.7,3.7,0,0,1,585,313.4Z"/><path class="cls-8" d="M595.3,206.9a9,9,0,0,0-13.2,12.2l2,2.8,3.8,6.1a1.4,1.4,0,0,0,2.3,0l3.9-6.1a34.6,34.6,0,0,1,2.2-3.1A8.9,8.9,0,0,0,595.3,206.9Z"/><path class="cls-9" d="M589.2,219.5h0a6,6,0,0,1-6-6h0a5.9,5.9,0,0,1,6-5.9h0a6,6,0,0,1,6,6h0A6.1,6.1,0,0,1,589.2,219.5Z"/><path class="cls-5" d="M589.2,216.5h0a2.9,2.9,0,0,1-3-3h0a3.1,3.1,0,0,1,3-3h0a3.1,3.1,0,0,1,3,3.1h0A3,3,0,0,1,589.2,216.5Z"/><path class="cls-18" d="M573.8,238.3v25.9a6.3,6.3,0,0,0,6.3,6.3h27.7A6.4,6.4,0,0,1,614,277v25.8a6.4,6.4,0,0,1-6.4,6.3H583.9"/><path class="cls-8" d="M573.8,249h0a6.2,6.2,0,0,1-6.1-6.2h0a6.1,6.1,0,0,1,6.2-6.1h0a6.2,6.2,0,0,1,6.1,6.1h0A6.2,6.2,0,0,1,573.8,249Z"/><path class="cls-9" d="M573.8,245.6h0a2.8,2.8,0,0,1-2.8-2.8h0a2.8,2.8,0,0,1,2.8-2.8h0a2.9,2.9,0,0,1,2.9,2.8h0A2.9,2.9,0,0,1,573.8,245.6Z"/><path class="cls-10" d="M504.4,221.6c-.2-.2-3.6-7.4,6.5-8.4-.6-4.9,1.9-9.4,4.9-10a15.2,15.2,0,0,1,5.7,0s1.6-5.6,5.5-6,6.6,0,8.7,3.9.4,6.6.4,6.6,2.4-1.9,6.5,1a7,7,0,0,1,3.1,6.9s5.8.2,5.4,6.1Z"/><path class="cls-10" d="M383.9,278.1c-.1-.2-2.4-5,4.3-5.6-.4-3.3,1.2-6.3,3.3-6.7a9.6,9.6,0,0,1,3.7,0s1.1-3.7,3.7-3.9,4.4-.1,5.8,2.5a4.7,4.7,0,0,1,.2,4.4s1.6-1.2,4.3.7a4.6,4.6,0,0,1,2.1,4.6,3.6,3.6,0,0,1,3.6,4Z"/><line class="cls-19" x1="525.1" y1="213.2" x2="525.1" y2="216.6"/><path class="cls-20" d="M525,223.4v13.4a8.1,8.1,0,0,1-8.2,8.1l-148.2-.6a8.2,8.2,0,0,0-8.2,8.1v25.3a8.2,8.2,0,0,0,8.1,8.2h21a8.2,8.2,0,0,0,7.7-5.5"/><line class="cls-19" x1="397.5" y1="277.1" x2="397.5" y2="273.7"/><path class="cls-8" d="M525.2,219h0a6.2,6.2,0,0,1-6.2-6.2h0a6.2,6.2,0,0,1,6.2-6.1h0a6.1,6.1,0,0,1,6.1,6.2h0A6.2,6.2,0,0,1,525.2,219Z"/><path class="cls-9" d="M525.2,215.7h0a2.8,2.8,0,0,1-2.8-2.9h0a2.9,2.9,0,0,1,2.8-2.8h0a2.8,2.8,0,0,1,2.8,2.9h0A2.9,2.9,0,0,1,525.2,215.7Z"/><path class="cls-8" d="M397.4,277.6h0a4.6,4.6,0,0,1-4.6-4.6h0a4.7,4.7,0,0,1,4.7-4.7h0a4.7,4.7,0,0,1,4.6,4.7h0A4.5,4.5,0,0,1,397.4,277.6Z"/><path class="cls-9" d="M397.4,275.1h0a2.1,2.1,0,0,1-2.1-2.1h0a2.2,2.2,0,0,1,2.1-2.2h0a2.2,2.2,0,0,1,2.2,2.2h0A2.1,2.1,0,0,1,397.4,275.1Z"/><circle class="cls-8" cx="373.9" cy="308.2" r="15.1" transform="translate(-110.5 319.5) rotate(-40.8)"/><circle class="cls-10" cx="373.9" cy="308.2" r="12" transform="translate(-45.9 550.2) rotate(-69.5)"/><path class="cls-21" d="M378.2,311.5a4.5,4.5,0,0,0-8.1,0"/><path class="cls-21" d="M380.7,309.4a7.3,7.3,0,0,0-13.1-.1"/><path class="cls-21" d="M383.6,307.7a10.5,10.5,0,0,0-9.4-5.9,10.7,10.7,0,0,0-9.5,5.8"/><path class="cls-9" d="M375.7,313a1.5,1.5,0,1,1-1.5-1.5A1.5,1.5,0,0,1,375.7,313Z"/><path class="cls-5" d="M561.3,315l-6.9-.8h-.1v-.3a15.8,15.8,0,0,1,.1-1.9c.1-2.3.3-5.6.6-5.8s5.4-.4,5.5.1a48.7,48.7,0,0,1,.6,5.8C561.2,313.7,561.3,315,561.3,315Z"/><path class="cls-5" d="M570.9,314.7c-.1.3-1.9,2.3-3.3,4.1l-1.3,1.5-.9,1v-.2l-4.2-5.8,2.2-2a24.4,24.4,0,0,1,3.8-3C567.6,310.4,571.1,314.2,570.9,314.7Z"/><path class="cls-5" d="M572.5,327.3l-5.1.3h-3.1l1-6.5v-.9h.9l1.7.2c2.1.2,4.7.6,4.9.9S573,327.1,572.5,327.3Z"/><path class="cls-5" d="M569.8,333.4c-.1.5-3.9,3.9-4.3,3.7s-1.9-2-3.4-3.6l-.9-1.1-1.2-1.3-.3-.3,4.6-3.2,1.4-.9.7.9c.1.3.4.6.6,1S569.9,333,569.8,333.4Z"/><path class="cls-5" d="M561.3,331.3a6.3,6.3,0,0,0-.1,1.1c-.1.4-.1,1-.2,1.5-.2,2.3-.5,5.2-.8,5.4s-5.4.2-5.5-.3-.2-2.7-.3-4.9c0-.5-.1-.9-.1-1.3v-.9a13.3,13.3,0,0,0-.1-1.7l5.8.9Z"/><path class="cls-5" d="M554.7,332.4a1.2,1.2,0,0,1-.4.4l-.9.9c-1.5,1.6-4,4-4.4,3.9s-4.2-3.6-4-4.1,1.9-2.6,3.3-4.5l1.8-2.4,4.2,5.3Z"/><path class="cls-5" d="M550.1,319.4l-.6,7.5h-2.2c-2.1-.1-5.1-.2-5.3-.5s-.5-5.7-.1-5.9a44.3,44.3,0,0,1,5.3-.8Z"/><path class="cls-4" d="M549.5,326.9h-2.2a12.7,12.7,0,0,1-.6-3.9,11.4,11.4,0,0,1,.5-3.3l2.9-.3Z"/><path class="cls-4" d="M561.3,315l-6.9-.8-5,5.2-1.5-1.5a11,11,0,0,1,4.8-5.2l1.6,1.2a15.8,15.8,0,0,1,.1-1.9,11.3,11.3,0,0,1,3.2-.5,10.3,10.3,0,0,1,3.5.6C561.2,313.7,561.3,315,561.3,315Z"/><path class="cls-4" d="M567.4,327.6h-1c.1.3.4.6.6,1a11.6,11.6,0,0,1-4.9,4.9l-.9-1.1c-.1.4-.1,1-.2,1.5a10.4,10.4,0,0,1-3.5.7,10.6,10.6,0,0,1-3.1-.5c0-.5-.1-.9-.1-1.3l-.9.9a11,11,0,0,1-5.1-4.7l1.8-2.4,4.2,5.3a13.3,13.3,0,0,0-.1-1.7l5.8.9-.3-.3,4.6-3.2,1-6.5-4.2-5.8,2.2-2a11.8,11.8,0,0,1,4.3,5.5l-1.3,1.5,1.7.2a10.9,10.9,0,0,1,.3,2.6A11.3,11.3,0,0,1,567.4,327.6Z"/><path class="cls-5" d="M554.5,314.1h-.1l-5,5.2-1.5-1.5c-1.6-1.6-3.8-3.8-3.8-4.2s3.1-4.7,3.6-4.5,3.1,2.1,5,3.5l1.6,1.2Z"/><path class="cls-11" d="M557.6,313.3c-5.1,0-9.1,4.3-9.2,9.7s4.1,9.7,9.1,9.7,9.1-4.3,9.1-9.6S562.6,313.3,557.6,313.3Zm-.1,8.3a1.4,1.4,0,0,1,1.4,1.4,1.5,1.5,0,0,1-1.4,1.5,1.5,1.5,0,0,1-1.4-1.5A1.4,1.4,0,0,1,557.5,321.6Z"/><path class="cls-4" d="M557.6,314.5a8.3,8.3,0,0,0-8,8.5,8.1,8.1,0,0,0,7.9,8.5c4.4.1,8-3.7,8-8.4S562,314.5,557.6,314.5Zm-.1,7.1a1.4,1.4,0,0,1,1.4,1.4,1.5,1.5,0,0,1-1.4,1.5,1.5,1.5,0,0,1-1.4-1.5A1.4,1.4,0,0,1,557.5,321.6Z"/><path class="cls-11" d="M557.5,316.1a7,7,0,1,0,6.5,7A6.8,6.8,0,0,0,557.5,316.1Zm0,5.5a1.4,1.4,0,0,1,1.4,1.4,1.5,1.5,0,0,1-1.4,1.5,1.5,1.5,0,0,1-1.4-1.5A1.4,1.4,0,0,1,557.5,321.6Z"/><path class="cls-5" d="M562.5,321.4a5.1,5.1,0,0,0-9.9-.1,5.1,5.1,0,0,0-.3,1.7,5.2,5.2,0,1,0,10.4,0A8.8,8.8,0,0,0,562.5,321.4Zm-5,.2a1.4,1.4,0,0,1,1.4,1.4,1.5,1.5,0,0,1-1.4,1.5,1.5,1.5,0,0,1-1.4-1.5A1.4,1.4,0,0,1,557.5,321.6Z"/><path class="cls-4" d="M557.5,317.5a5.2,5.2,0,0,0-4.9,3.8,5.1,5.1,0,0,0,4.9,3.9,5.3,5.3,0,0,0,5-3.8A5.2,5.2,0,0,0,557.5,317.5Zm0,7a1.5,1.5,0,0,1-1.4-1.5,1.4,1.4,0,0,1,1.4-1.4,1.4,1.4,0,0,1,1.4,1.4A1.5,1.5,0,0,1,557.5,324.5Z"/><path class="cls-5" d="M590.1,305.4l-4.6-3h0l.7-1.4a33,33,0,0,1,2.2-3.8c.4-.1,3.9,1.6,3.9,2a37.5,37.5,0,0,1-1.5,4.4Z"/><path class="cls-5" d="M596.9,308.6c-.2.2-2.1,1-3.6,1.7l-1.4.6-.9.4h0l-1.1-5.6,2.1-.6a14.6,14.6,0,0,1,3.6-.8C595.9,304.5,597.2,308.4,596.9,308.6Z"/><path class="cls-5" d="M594.1,318.1l-3.7-1.6-.8-.4-1.4-.7h0l2.8-4.1.3-.6.6.3,1.2.8a18.5,18.5,0,0,1,3.1,2.4C596.2,314.5,594.4,318.1,594.1,318.1Z"/><path class="cls-5" d="M590.2,321.3c-.2.4-3.9,1.4-4.2,1.1s-.7-2.1-1.2-3.7l-.3-1.1-.4-1.3v-.4l4.2-.6h1.3a6.2,6.2,0,0,0,.1.9c.1.3.1.5.2.9S590.4,321.1,590.2,321.3Z"/><path class="cls-5" d="M584.9,316.9l-.4.7-.6,1a16.1,16.1,0,0,1-2.2,3.4c-.4.1-3.8-1.7-3.8-2.1a36.7,36.7,0,0,1,1.3-3.6,3.6,3.6,0,0,0,.4-.9,1.4,1.4,0,0,0,.2-.6l.5-1.3,3.8,2.8Z"/><path class="cls-5" d="M580,315.3h-.4l-.9.3a27.7,27.7,0,0,1-4.4,1.2c-.3-.3-1.7-4.1-1.5-4.3l3.7-2,2.1-1,1.2,5.2Z"/><path class="cls-5" d="M580.8,304.5l-2.7,5.1-1.5-.9a18.3,18.3,0,0,1-3.6-2.2c-.1-.4,1.4-4.2,1.8-4.2l3.9,1.4Z"/><path class="cls-4" d="M578.1,309.6l-1.5-.9a9.6,9.6,0,0,1,2.1-5l2.1.8Z"/><path class="cls-4" d="M590.1,305.4l-4.6-3-5.2,1.8a13.6,13.6,0,0,0-.6-1.6,8.6,8.6,0,0,1,5-1.9l.8,1.5.7-1.4a11.3,11.3,0,0,1,2.4.8,9.6,9.6,0,0,1,2.2,1.8Z"/><path class="cls-4" d="M590.4,316.5l-.8-.4c.1.3.1.5.2.9a8.4,8.4,0,0,1-5,1.7l-.3-1.1-.6,1a9.2,9.2,0,0,1-2.7-.8,9.5,9.5,0,0,1-2-1.5,3.6,3.6,0,0,0,.4-.9l-.9.3a9.4,9.4,0,0,1-2.2-5.1l2.1-1,1.2,5.2.5-1.3,3.8,2.8v-.4l4.2-.6,2.8-4.1-1.1-5.6,2.1-.6a9.5,9.5,0,0,1,1.3,5.3l-1.4.6,1.2.8a14.6,14.6,0,0,1-.7,1.9A10,10,0,0,1,590.4,316.5Z"/><path class="cls-5" d="M585.6,302.4h-.1l-5.2,1.8a13.6,13.6,0,0,0-.6-1.6,23.6,23.6,0,0,1-1.3-4.2c.2-.4,3.7-2.2,4-1.9a45.8,45.8,0,0,1,2.3,4.2l.8,1.5A.3.3,0,0,0,585.6,302.4Z"/><path class="cls-11" d="M588,302.9a7,7,0,0,0-9.5,3.5,7.8,7.8,0,0,0,3.3,10.1,6.9,6.9,0,0,0,9.4-3.5A7.8,7.8,0,0,0,588,302.9Zm-2.6,5.8a1.1,1.1,0,0,1,.4,1.5.9.9,0,0,1-1.4.5,1.2,1.2,0,0,1-.5-1.5A1.1,1.1,0,0,1,585.4,308.7Z"/><path class="cls-4" d="M587.6,303.7a6.1,6.1,0,0,0-8.3,3.1,6.8,6.8,0,0,0,2.9,8.8,6,6,0,0,0,8.3-3A6.9,6.9,0,0,0,587.6,303.7Zm-2.2,5a1.1,1.1,0,0,1,.4,1.5.9.9,0,0,1-1.4.5,1.2,1.2,0,0,1-.5-1.5A1.1,1.1,0,0,1,585.4,308.7Z"/><path class="cls-11" d="M587.1,304.8a5.1,5.1,0,0,0-6.8,2.5,5.7,5.7,0,0,0,2.4,7.3,4.9,4.9,0,0,0,6.7-2.6A5.5,5.5,0,0,0,587.1,304.8Zm-1.7,3.9a1.1,1.1,0,0,1,.4,1.5.9.9,0,0,1-1.4.5,1.2,1.2,0,0,1-.5-1.5A1.1,1.1,0,0,1,585.4,308.7Z"/><path class="cls-5" d="M588.9,310.3a4.5,4.5,0,0,0-2.2-4.5,3.9,3.9,0,0,0-4.7.9,4.1,4.1,0,0,0-.7,1.1,4.4,4.4,0,0,0,1.8,5.8,4,4,0,0,0,5.4-2A6.5,6.5,0,0,0,588.9,310.3Zm-3.5-1.6a1.1,1.1,0,0,1,.4,1.5.9.9,0,0,1-1.4.5,1.2,1.2,0,0,1-.5-1.5A1.1,1.1,0,0,1,585.4,308.7Z"/><path class="cls-4" d="M586.7,305.8a3.9,3.9,0,0,0-4.7.9,4.3,4.3,0,0,0,2.2,4.5,3.8,3.8,0,0,0,4.7-.9A4.5,4.5,0,0,0,586.7,305.8Zm-2.3,4.9a1.2,1.2,0,0,1-.5-1.5,1.1,1.1,0,0,1,1.5-.5,1.1,1.1,0,0,1,.4,1.5A.9.9,0,0,1,584.4,310.7Z"/><path class="cls-5" d="M590.1,331.9l-4.6-3h-.1a.3.3,0,0,1,.1-.2,9.2,9.2,0,0,1,.7-1.3c.8-1.6,1.9-3.8,2.2-3.8s3.9,1.6,3.9,2-.8,2.5-1.5,4.3Z"/><path class="cls-5" d="M596.9,335.1l-3.7,1.7-1.3.6-.9.4v-.2l-1-5.6,2.1-.6c1.5-.4,3.4-.9,3.6-.7A13.9,13.9,0,0,1,596.9,335.1Z"/><path class="cls-5" d="M594.1,344.5a39.6,39.6,0,0,1-3.7-1.6l-.8-.4-1.4-.6h0l2.7-4.2.4-.6.6.4,1.2.7a24,24,0,0,1,3,2.4C596.2,340.9,594.4,344.6,594.1,344.5Z"/><path class="cls-5" d="M590.2,347.8c-.2.3-3.9,1.4-4.2,1s-.7-2-1.2-3.7l-.3-1.1c-.2-.5-.3-1-.4-1.3v-.3l4.2-.6,1.3-.2a5.1,5.1,0,0,0,.1.9c.1.3.1.6.2.9C590.1,345.2,590.4,347.6,590.2,347.8Z"/><path class="cls-5" d="M584.9,343.3l-.4.7-.6,1a22.3,22.3,0,0,1-2.2,3.5c-.4.1-3.9-1.8-3.8-2.2s.7-1.9,1.3-3.5a10.4,10.4,0,0,1,.4-1,1.4,1.4,0,0,0,.2-.6l.5-1.2,3.8,2.7Z"/><path class="cls-5" d="M580,341.7h-.4l-.9.4c-1.6.5-4.1,1.3-4.4,1.1s-1.8-4-1.5-4.3l3.7-2,2.1-1,1.2,5.2Z"/><path class="cls-5" d="M580.8,330.9l-2.7,5.1-1.6-.8c-1.4-.8-3.5-2-3.5-2.3s1.4-4.2,1.8-4.2l3.9,1.4Z"/><path class="cls-4" d="M578.1,336l-1.6-.8a11.1,11.1,0,0,1,.8-3,11,11,0,0,1,1.4-2.1l2.1.8Z"/><path class="cls-4" d="M590.1,331.9l-4.6-3-5.2,1.8a13.6,13.6,0,0,0-.6-1.6,8,8,0,0,1,5-1.9l.8,1.4a9.2,9.2,0,0,1,.7-1.3,6.3,6.3,0,0,1,2.3.8,6.6,6.6,0,0,1,2.3,1.7Z"/><path class="cls-4" d="M590.4,342.9l-.8-.4c.1.3.1.6.2.9a8.4,8.4,0,0,1-5,1.7l-.3-1.1-.6,1a7,7,0,0,1-2.7-.8l-2-1.4a10.4,10.4,0,0,1,.4-1l-.9.4a10.1,10.1,0,0,1-2.2-5.2l2.1-1,1.2,5.2.5-1.2,3.8,2.7v-.3l4.2-.6,2.7-4.2-1-5.6,2.1-.6a9.2,9.2,0,0,1,1.2,5.4l-1.3.6,1.2.7a15.9,15.9,0,0,1-.7,2A9.5,9.5,0,0,1,590.4,342.9Z"/><path class="cls-5" d="M585.6,328.8h-.1l-5.2,1.8a13.6,13.6,0,0,0-.6-1.6,26.4,26.4,0,0,1-1.3-4.3c.2-.4,3.7-2.2,4-1.9l2.3,4.3.8,1.4Z"/><path class="cls-11" d="M588,329.4a6.8,6.8,0,0,0-9.5,3.5,7.7,7.7,0,0,0,3.3,10,6.8,6.8,0,0,0,9.4-3.5A7.7,7.7,0,0,0,588,329.4Zm-2.7,5.7a1.1,1.1,0,0,1,.5,1.5,1.1,1.1,0,0,1-1.4.6,1.4,1.4,0,0,1-.5-1.6A1.1,1.1,0,0,1,585.3,335.1Z"/><path class="cls-4" d="M587.6,330.2a6,6,0,0,0-8.3,3.1,6.8,6.8,0,0,0,2.9,8.8,5.9,5.9,0,0,0,8.2-3.1A6.7,6.7,0,0,0,587.6,330.2Zm-2.3,4.9a1.1,1.1,0,0,1,.5,1.5,1.1,1.1,0,0,1-1.4.6,1.4,1.4,0,0,1-.5-1.6A1.1,1.1,0,0,1,585.3,335.1Z"/><path class="cls-11" d="M587.1,331.3a5,5,0,0,0-6.8,2.5,5.6,5.6,0,0,0,2.4,7.2,4.8,4.8,0,0,0,6.7-2.5A5.5,5.5,0,0,0,587.1,331.3Zm-1.8,3.8a1.1,1.1,0,0,1,.5,1.5,1.1,1.1,0,0,1-1.4.6,1.4,1.4,0,0,1-.5-1.6A1.1,1.1,0,0,1,585.3,335.1Z"/><path class="cls-5" d="M588.9,336.8a4.4,4.4,0,0,0-2.3-4.5,3.7,3.7,0,0,0-4.6.9,2.6,2.6,0,0,0-.7,1.1,4.3,4.3,0,0,0,1.8,5.7,3.9,3.9,0,0,0,5.4-2A5.6,5.6,0,0,0,588.9,336.8Zm-3.6-1.7a1.1,1.1,0,0,1,.5,1.5,1.1,1.1,0,0,1-1.4.6,1.4,1.4,0,0,1-.5-1.6A1.1,1.1,0,0,1,585.3,335.1Z"/><path class="cls-4" d="M586.6,332.3a3.7,3.7,0,0,0-4.6.9,4.4,4.4,0,0,0,2.2,4.5,4,4,0,0,0,4.7-.9A4.4,4.4,0,0,0,586.6,332.3Zm-2.2,4.9a1.4,1.4,0,0,1-.5-1.6,1.1,1.1,0,0,1,1.4-.5,1.1,1.1,0,0,1,.5,1.5A1.1,1.1,0,0,1,584.4,337.2Z"/><path class="cls-22" d="M427.8,314.1a14.7,14.7,0,0,1-14.9,14.5l-2.4-.2a11.9,11.9,0,0,1-3.2-1,14.3,14.3,0,0,1-7.6-7.5,15,15,0,0,1-1.1-3.6,11.4,11.4,0,0,1-.2-2.6,14.6,14.6,0,0,1,13.4-14.4h1.5a14.7,14.7,0,0,1,13.3,8.8A15.8,15.8,0,0,1,427.8,314.1Z"/><path class="cls-23" d="M412.7,303.6a1.3,1.3,0,0,1-.8,1.2c-.7.3-1.7.1-2,.8s.4,1.1.9,1.4,1.1.9.9,1.4-2.4.2-2.8,1.1.4,1.3.2,1.9a1.1,1.1,0,0,1-1.3.5c-.5,0-.9-.3-1.4-.2a1.7,1.7,0,0,0-1.4.9,12.1,12.1,0,0,0-1,1.4,4.7,4.7,0,0,1-3.6,2,16.4,16.4,0,0,1-.2-2.3A13,13,0,0,1,412,301.1a3.1,3.1,0,0,1,.5,1A2.6,2.6,0,0,1,412.7,303.6Z"/><path class="cls-23" d="M417.8,314.2a1.6,1.6,0,0,0-.6-.8,8.2,8.2,0,0,0-4.4-2.3,1.7,1.7,0,0,0-1,0,.7.7,0,0,0-.5.8h.1a4.6,4.6,0,0,0,.8,2.5,1.8,1.8,0,0,0,.7.8.9.9,0,0,0,1,.1c.5-.2.7-.8,1.2-.9s.8.2,1.2.4a1.3,1.3,0,0,0,1.3.3A1.1,1.1,0,0,0,417.8,314.2Z"/><path class="cls-23" d="M426,314.1a12.9,12.9,0,0,1-13.1,12.7l-2.1-.2.8-.6c.5-.3,1.1-.5,1.4-1s.6-1.5,1.2-2a2.3,2.3,0,0,1,1.8-.3,7.1,7.1,0,0,0,2,.4c.6,0,1.4-.4,1.5-1s-1.1-1.9-.7-2.8.6-.5,1.1-.6a6.1,6.1,0,0,0,1.3-.3.9.9,0,0,0,.5-1.1c-.5-.2-.5-1,0-1.4a3.3,3.3,0,0,1,1.5-.5,1.7,1.7,0,0,0,1.3-.8,1.6,1.6,0,0,0-.5-1.7,5.3,5.3,0,0,1-1.1-1.5,2.2,2.2,0,0,1,1.1-2.2l.9-.4A13.2,13.2,0,0,1,426,314.1Z"/><path class="cls-23" d="M410.7,321.5c-.1.6-.8.7-1.2,1s-1,2.2-1.5,3.2a12.9,12.9,0,0,1-6.7-6.5l1.5.2c1-.1,1.9-.5,2.9-.6a5.5,5.5,0,0,1,4.6,2A1.3,1.3,0,0,1,410.7,321.5Z"/><path class="cls-10" d="M432.8,315.7c-2.9,3.6-14,10.3-27.8,13.2s-9.2-3.5-8.5-4.3h-.1c-.2.3-1.7,2.6,1.5,3.1s24.5-8.3,28-10.6c5.8-3.6,5.2-6.5,5-7.9s-1.5-3.6-3.5-3.8h-.8c2.1-1,3.9-.4,5.7,1.1A6.6,6.6,0,0,1,432.8,315.7Z"/><path class="cls-24" d="M432.4,313.3c-1,2.3-8.3,7.8-20.5,12.1s-13.8,3.6-15.5,2.6-.2-3.1,0-3.4-1.7,2.6,1.5,3.1,24.5-8.3,28-10.6c5.8-3.6,5.2-6.5,5-7.9s-1.5-3.6-3.5-3.8C432.6,305.6,433.3,311,432.4,313.3Z"/><path class="cls-10" d="M394.3,311.8c2.7,3.8,13.4,11.1,27,14.9s9.4-3,8.7-3.8h.1c.2.3,1.5,2.7-1.6,3s-24-9.7-27.4-12.2c-5.5-4-4.8-6.8-4.5-8.3s1.7-3.4,3.7-3.5h.8c-2-1.1-3.9-.6-5.8.8A6.5,6.5,0,0,0,394.3,311.8Z"/><path class="cls-24" d="M394.9,309.4c.8,2.4,7.7,8.3,19.7,13.3s13.5,4.5,15.3,3.6.3-3.1.2-3.4,1.5,2.7-1.6,3-24-9.7-27.4-12.2c-5.5-4-4.8-6.8-4.5-8.3s1.7-3.4,3.7-3.5C395.1,301.8,394.1,307.2,394.9,309.4Z"/><path class="cls-8" d="M421,308a8.7,8.7,0,0,0-3.6-4.2c-1.5-1.1-3.6-2.3-5.5-2s-1.2,1.2-.5,1.7,3,1.4,4.4,2.3a38.9,38.9,0,0,1,3.6,3.4.9.9,0,0,0,1.5-.2h-.1A1.1,1.1,0,0,0,421,308Z"/><path class="cls-25" d="M426.4,271.7s12.2-10.7,14.3-11,13.8,10.8,13.9,11.5-19.3,8.2-19.5,8.1Z"/><path class="cls-26" d="M426.4,274.8s-.1-3,0-3.1,28.2.5,28.2.5l.3,1.1s-1.5,9.9-2.1,9.9-12.8,2.7-12.8,2.7l-11.3-4.1Z"/><path class="cls-27" d="M429.3,280.7s.1-10.8.3-11.4,20.2-.7,21-.3.8,10.5.8,10.5v8.6H429.2Z"/><path class="cls-25" d="M455.1,285.8c0,2-.2,3.5-.6,3.7s-26.5.5-27.4-.1a4.1,4.1,0,0,1-.5-2,105.4,105.4,0,0,1-.2-13.4c.5-.3,6.2,2.6,10.4,4.8l4.4,2.4,5.3-3.1,8.4-4.8S455.3,281,455.1,285.8Z"/><path class="cls-28" d="M436.8,278.8h-.1l-10.1,8.5c-.1-.8-.1-1.7-.2-2.7-.2-4.5-.1-10.6,0-10.7s6,2.5,10.2,4.7c0,.1.1.1.2.1Z"/><path class="cls-26" d="M436.6,278.7l-10.2,6c.1,1,.1,1.9.2,2.7l10.1-8.5h-.1Z"/><path class="cls-28" d="M455.1,285.8l-8.6-7.7.6-.3,7.8-4.5s.3,5.2.3,9.7A25.3,25.3,0,0,1,455.1,285.8Z"/><path class="cls-29" d="M449,271.1a19.4,19.4,0,0,0-4.2-.2l-5.8-.2h-1.4a58.6,58.6,0,0,0-5.9.1.5.5,0,0,0,0,1,50.4,50.4,0,0,0,8.7.1h4.3a30,30,0,0,0,4.3-.3C449.3,271.6,449.2,271.2,449,271.1Z"/><path class="cls-29" d="M448,273.4a18.8,18.8,0,0,0-3.4-.2H434.3a6.1,6.1,0,0,0-1.9.1c-.2.1-.3.5,0,.6a4.7,4.7,0,0,0,1.7.2H444a26.8,26.8,0,0,0,4-.2A.3.3,0,0,0,448,273.4Z"/><path class="cls-29" d="M447,275.3H436.7a17.9,17.9,0,0,0-3.3.1.3.3,0,0,0,0,.6,13,13,0,0,0,3.4.2h8.6a4.3,4.3,0,0,0,1.6-.1A.4.4,0,0,0,447,275.3Z"/><path class="cls-26" d="M455.1,285.8l-8.6-7.7.6-.3,8.1,5.2A25.3,25.3,0,0,1,455.1,285.8Z"/><path class="cls-21" d="M462.1,142.4a4.5,4.5,0,0,0-4-2.5,4.7,4.7,0,0,0-4.1,2.4"/><path class="cls-21" d="M464.6,140.2a7.2,7.2,0,0,0-6.5-4,7,7,0,0,0-6.5,4"/><path class="cls-21" d="M467.5,138.5a10.5,10.5,0,0,0-18.9,0"/><path class="cls-21" d="M594.2,199.7a4.6,4.6,0,0,0-4.1-2.5,4.5,4.5,0,0,0-4,2.4"/><path class="cls-21" d="M596.7,197.5a7.3,7.3,0,0,0-6.5-4,7.1,7.1,0,0,0-6.6,4"/><path class="cls-21" d="M599.6,195.8a10.8,10.8,0,0,0-9.4-5.9,10.5,10.5,0,0,0-9.5,5.9"/><path class="cls-21" d="M404.2,159.4a4.8,4.8,0,0,0-4.1-2.5,4.6,4.6,0,0,0-4,2.5"/><path class="cls-21" d="M406.7,157.3a7.4,7.4,0,0,0-6.5-4.1,7.5,7.5,0,0,0-6.6,4"/><path class="cls-21" d="M409.6,155.6a10.5,10.5,0,0,0-9.4-5.9,10.6,10.6,0,0,0-9.5,5.8"/><path class="cls-30" d="M395.3,164.3s2.2-2.3,4.2-2.3,4.3,2,4.5,2.7a58.5,58.5,0,0,1-9,.2Z"/><path class="cls-31" d="M396.4,164.2c.1-.1,2.5-1.6,3.6-1.4a7.3,7.3,0,0,1,2.6,1.6C402.8,164.8,396.4,164.2,396.4,164.2Z"/><path class="cls-25" d="M409,180.1c-.4,2.8-2.7,6.7-8.9,6.8s-9.2-2.4-9.8-7.1,2.8-6.9,4-8.3.1-3.4.2-3.6h10.3a27.8,27.8,0,0,1,.2,4A8,8,0,0,1,409,180.1Z"/><path class="cls-32" d="M406,182.5c-1.3,1.7-3.8,2.7-7.9,2.4s-6.3-3.2-6-6.9,3.9-6.2,3.9-6.2v-3.9h7v3.9a26.4,26.4,0,0,1,3,3.5A6.7,6.7,0,0,1,406,182.5Z"/><path class="cls-26" d="M402.7,176.4h-2c-.7,0-.9.1-.8-.6v-3.4a25.5,25.5,0,0,1,.1-4.8c.1-.7-1.1-.7-1-.1.5,2.8-.2,5.8,0,8.7a.1.1,0,0,1,.1.1h-3.3a.6.6,0,0,0-.6.6c-.1.1-.1.3.1.5a17.1,17.1,0,0,1,2,1.8c.4.4,1.3,1.6,1.9,1.6s1.5-1.1,2-1.6l1.4-1.4c.3-.3,1.2-.8.5-1.2Zm-2.1,1.9-1.3,1.1a15,15,0,0,0-1.3-1.1l-1.5-1.2c1.8-.1,3.7.1,5.6-.1Z"/><path class="cls-10" d="M394.1,168.2c.3.3,10.8.3,11.1.1a10.4,10.4,0,0,0,0-4.3c-.3-.4-10.9-.2-11-.1S393.7,167.9,394.1,168.2Z"/><path class="cls-30" d="M405.6,164.5c-3.8-.5-7.9.2-11.7.4-.4,0-.3.5.1.5h5.5a31.2,31.2,0,0,0,6.1-.3C405.9,165,406,164.6,405.6,164.5Z"/><path class="cls-30" d="M405.7,165.5c-4,0-8,.6-12,.6-.4,0-.3.6.1.5,4-.3,8-.1,12-.4C406.3,166.1,406.2,165.5,405.7,165.5Z"/><path class="cls-30" d="M405.7,166.7c-4-.1-8,.5-12,.5-.4,0-.3.6.1.5,4-.3,8,0,12-.4C406.3,167.3,406.2,166.7,405.7,166.7Z"/><path class="cls-33" d="M393.7,175.2s-2.2,3.4-.5,5.9,4.4,4,6.6,2.5-1.2-2.2-2.9-2.8A5.2,5.2,0,0,1,393.7,175.2Z"/><path class="cls-6" d="M484.4,211.3l-2.2-.2s-.2-5.6-.6-6.5-9.8-.7-10.5-.4-.5,6.7-.5,6.7h-2.4v-1.7c.1-2.4.2-6.5.7-7.2s14.1-.3,14.9.6.6,3.9.6,6.4Z"/><path class="cls-3" d="M484.4,211.3l-2.2-.2s-.2-5.6-.6-6.5-9.8-.7-10.5-.4-.5,6.7-.5,6.7h-2.4v-1.7l1.5-.4s-.6-5.6.4-5.7,12.1,0,12.6.8.4,5.2.4,5.2h1.3Z"/><path class="cls-34" d="M475.7,202.3Z"/><path class="cls-34" d="M483.2,203.2c-.5-1-2-1-2.9-1.1a48.7,48.7,0,0,0-5.4-.2c-.4,0-.2.7.3.3a2.3,2.3,0,0,1,2.6-.2c1.9,1,3.5,0,5.2,1.5C483.1,203.6,483.3,203.3,483.2,203.2Z"/><path class="cls-35" d="M466.2,212.1v-1.7a34.6,34.6,0,0,1,5.6-.2c.2.2.1,1.7.1,1.7Z"/><path class="cls-35" d="M479.9,212v-1.6a33.5,33.5,0,0,1,5.5-.1,12.1,12.1,0,0,1,.1,1.8Z"/><path class="cls-36" d="M487,228.4c-1.1,1-21.5,1.1-21.8.5s-.1-.3-.1-.7c-.3-2.7-.6-12.4.1-15.3.1-.5.3-.8.5-.8,2.6-.9,20.9-.9,21.5-.3S488.1,227.4,487,228.4Z"/><path class="cls-37" d="M477.3,220.6c.1-.1,1.5-1,.8-2a2.1,2.1,0,0,0-2.8-.6,1.6,1.6,0,0,0,.4,2.6c-.7,1.2-1.6,2.8-1.3,3a17.9,17.9,0,0,0,4-.2C478.7,222.8,477.3,220.6,477.3,220.6Z"/><path class="cls-38" d="M487,228.4c-1.1,1-21.5,1.1-21.8.5s-.1-.3-.1-.7c2.4-.7,12.8-.3,12.8-.3s-4.7-.7-5.3-1.4,9.9,1,9.9,1,0-11.7-.6-12.6-15-1.9-16.7-2c.1-.5.3-.8.5-.8,2.6-.9,20.9-.9,21.5-.3S488.1,227.4,487,228.4Z"/><path class="cls-34" d="M483.9,204.8c0-.2-.1-.4-.1-.6s-.5-.3-.4,0,.1.4.1.6a1.4,1.4,0,0,0,.2.6c0,.1.2.1.2-.1S483.9,204.9,483.9,204.8Z"/><path class="cls-6" d="M367.4,229.9a9.2,9.2,0,0,0,4.2-.2l6.4-8.6a6.5,6.5,0,0,0,1.4-4.3l-.5-11.8-2.7-.8-.7,7.4-.4,3.8a6.4,6.4,0,0,1-2,4.2c-1.5,1.4-3.9,3.7-7.3,6.7C365.4,228.5,366.3,229.5,367.4,229.9Z"/><path class="cls-3" d="M367.4,229.9a9.2,9.2,0,0,0,4.2-.2l6.4-8.6a6.5,6.5,0,0,0,1.4-4.3l-.5-11.8-2.7-.8-.7,7.4,1.8,1.1s.4,5.7-.9,7.2Z"/><path class="cls-3" d="M396.3,197.9l-.4,10.6-2,.2c-7,.6-30,2.7-30.6,2s-.2-14.2,1.3-14.9,19.1-1.6,30-2.2l7.7-.4C403.2,193.3,396.3,197.9,396.3,197.9Z"/><polygon class="cls-6" points="388.6 198 388.7 201.1 366.7 203.7 367.1 198.6 388.6 198"/><path class="cls-3" d="M373.7,219.8a3.7,3.7,0,1,0,6.8-3,3.7,3.7,0,0,0-6.8,3Z"/><path class="cls-6" d="M375.3,219.1a2,2,0,0,0,2.6,1,2,2,0,0,0,.9-2.6,1.8,1.8,0,0,0-2.5-.9A1.9,1.9,0,0,0,375.3,219.1Z"/><path class="cls-3" d="M376.4,218.6a.8.8,0,0,0,1.4-.6.8.8,0,1,0-1.4.6Z"/><path class="cls-39" d="M396.3,197.9l-.4,10.6-2,.2c.2-3.4.6-12.7.7-15.1l7.7-.4C403.2,193.3,396.3,197.9,396.3,197.9Z"/><path class="cls-40" d="M382.7,206a1,1,0,0,1-.9,1,1,1,0,0,1-1-1,1,1,0,0,1,1-.9A.9.9,0,0,1,382.7,206Z"/><path class="cls-40" d="M386.5,206a.9.9,0,0,1-1,1,1,1,0,0,1-.9-1,.9.9,0,0,1,1-.9A.9.9,0,0,1,386.5,206Z"/><path class="cls-10" d="M547.1,264.2a9.7,9.7,0,0,1-3.6,7.5,10.3,10.3,0,0,1-6.2,2.1,9.5,9.5,0,0,1-9.5-9.6,9,9,0,0,1,5-8.4V228.4a4.7,4.7,0,0,1,4.7-4.7l1.4.2a4.8,4.8,0,0,1,3.6,4.6v27.4A9.8,9.8,0,0,1,547.1,264.2Z"/><path class="cls-40" d="M539.7,255.6V247a2.2,2.2,0,1,0-4.4.1v8.6a5.8,5.8,0,0,1-2,4.2,6.3,6.3,0,0,0,2.9,10.5,6.1,6.1,0,0,0,5.5-10.4A6.2,6.2,0,0,1,539.7,255.6Z"/><path class="cls-24" d="M543.4,271.7a10,10,0,0,1-6.1,2.1,9.5,9.5,0,0,1-9.5-9.6,9,9,0,0,1,5-8.4V228.4a4.7,4.7,0,0,1,4.7-4.7l1.2.2c-1.7.3-4,1.4-4.3,5.2-.6,6.1-.4,28.1-.4,28.1s-3.8,2.4-4.2,6-.1,6.5,3.7,8.4A13.3,13.3,0,0,0,543.4,271.7Z"/><path class="cls-41" d="M542,264.2a2.2,2.2,0,0,1-2.2,2.2,2.2,2.2,0,0,1-2.2-2.3,2.2,2.2,0,0,1,2.2-2.2A2.3,2.3,0,0,1,542,264.2Z"/><path class="cls-42" d="M537.6,268.2a3.4,3.4,0,0,1-3.7-3.7,8.2,8.2,0,0,1,2.2-4.7c.2-.3-.1-.7-.3-.5-2.1,1.7-3.7,4.1-2.9,6.9a3.9,3.9,0,0,0,4.9,2.8C538.3,268.9,538.1,268.2,537.6,268.2Z"/><path class="cls-42" d="M537.4,248.9c-.1-.3-.6-.4-.6,0s-.1,2.3-.1,3.5.7.4.7,0Z"/><path class="cls-3" d="M548.6,234.8a10.3,10.3,0,0,0-3.5.1c-.7,0-.7.8,0,.9a13.6,13.6,0,0,0,3.5.1A.6.6,0,0,0,548.6,234.8Z"/><path class="cls-3" d="M548.6,237.5a4.5,4.5,0,0,0-2,0h-1.5c-.7.1-.7.9,0,.9h3.5C549.1,238.3,549.2,237.7,548.6,237.5Z"/><path class="cls-3" d="M548.5,240.6a5.9,5.9,0,0,0-1.9-.1h-1.5c-.8,0-.8.8,0,.9h3.4A.4.4,0,1,0,548.5,240.6Z"/><path class="cls-3" d="M548.5,243.3h-3.4a.6.6,0,1,0,0,1.2h3.4A.6.6,0,1,0,548.5,243.3Z"/><path class="cls-3" d="M548.5,246.5H545a.7.7,0,0,0,0,1.3h3.5A.6.6,0,1,0,548.5,246.5Z"/><path class="cls-3" d="M548.5,249.6H545a.6.6,0,1,0,0,1.2h3.5C549.3,250.8,549.2,249.7,548.5,249.6Z"/><path class="cls-3" d="M548.5,252.8H545a.7.7,0,0,0,0,1.3h3.5C549.2,253.9,549.2,252.8,548.5,252.8Z"/><path class="cls-10" d="M476.7,197h-12l-28.8-.4-14.5-.3h-2.2s-.8-17-.4-17.3,19-.1,19-.1.2-11.3.4-14.1,20-16.4,20-16.4c2.2.8,18.2,17.8,18.2,17.8S477.5,196.8,476.7,197Z"/><path class="cls-43" d="M441.9,170.6c-.9,0-.5,7.7-.1,7.8s7.2.5,8-.1.4-6.9-.1-7.4S443.3,170.6,441.9,170.6Z"/><path class="cls-30" d="M452.6,156.7c-1.2-.1-.6,2.2-.1,2.2H462c.3-.1.5-2-.1-2.1S454.2,156.7,452.6,156.7Z"/><path class="cls-43" d="M453.6,170.7c-.9,0-.5,7.7-.1,7.7s7.1.5,7.9-.1.5-6.9-.1-7.3S455,170.7,453.6,170.7Z"/><path class="cls-43" d="M465.3,170.7c-1,0-.5,7.7-.1,7.8s7.1.5,7.9-.1.4-6.9-.1-7.4S466.6,170.7,465.3,170.7Z"/><path class="cls-39" d="M437.9,172.6V179l-13.8.2h-6.8C417.5,178.7,437.9,172.6,437.9,172.6Z"/><polygon class="cls-44" points="437.9 174.3 437.8 179 424 179.2 437.9 174.3"/><path class="cls-30" d="M435.9,196.7l-14.5-.3c0-.3-.1-1.4-.1-2.9v-1.2c0-.6-.1-1.3-.1-1.9v-3.9c0-.5.1-1,.1-1.4a14.1,14.1,0,0,1,.2-3.2c.4-.2,13.1-.2,13.8.4a7.4,7.4,0,0,1,.4,2.6c0,.6.4,1.2.4,1.9s.3,1.3.3,1.9h0c0,.7-.2,1.4-.2,2.1s-.2.8-.2,1.2-.1,1.3-.1,1.9A25.7,25.7,0,0,1,435.9,196.7Z"/><polygon class="cls-39" points="458.2 148.5 435.9 167 434.7 165.3 458.1 145.9 479.9 165.9 477.6 167.3 458.2 148.5"/><path class="cls-44" d="M474.1,197.1h-9.4c-.1-3-.5-12.3-.1-12.8s8.3-.7,8.8-.4S474,193.6,474.1,197.1Z"/><path class="cls-45" d="M435.8,186.8c-4.8.2-9.7-.1-14.5-.3v-1.4c4.8-.2,9.6-.4,14.4-.2A12.8,12.8,0,0,0,435.8,186.8Z"/><path class="cls-45" d="M435.9,190.8c-2.9,0-5.8-.2-8.6-.3s-4,.4-6,.3V190h0a23.9,23.9,0,0,1,6.5-.6c2.6,0,5.3-.5,8-.4A10.9,10.9,0,0,0,435.9,190.8Z"/><path class="cls-45" d="M435.9,193.9c-4.9,0-9.7-.1-14.6-.4v-1.2c4.9-.2,9.7-.3,14.6-.3Z"/><path class="cls-46" d="M543.7,169.5c-1.1.6,0,12.8,4.4,20.9s9.1,10.5,10.7,10.4,8.4-5.6,11.4-11.9,3.9-15.9,4-18.2S555,163.4,543.7,169.5Z"/><path class="cls-47" d="M546,171.3c.1-.9,4.2-3.3,12.7-3.1s13.1,2.5,13.4,3.2-2.5,23.4-13.3,27.6C551.2,195.8,544.6,180.2,546,171.3Z"/><path class="cls-48" d="M558.8,181.4h-9.6a45.8,45.8,0,0,1-1.2-9.4h.5a31.7,31.7,0,0,1,10.2-1.5C558.7,173.3,558.8,177.4,558.8,181.4Z"/><path class="cls-10" d="M559,196.1c-5.7-3.1-8.5-9.3-9.8-14.6h9.6Z"/><path class="cls-48" d="M568.3,181.4c-1.9,6.8-5.9,12.2-9.3,14.7l-.2-14.7Z"/><path class="cls-10" d="M568.3,181.4h-9.5c0-4-.1-8.1-.1-10.9a29.7,29.7,0,0,1,10.7,1.8A29.9,29.9,0,0,1,568.3,181.4Z"/><ellipse class="cls-49" cx="486.6" cy="370.4" rx="43.8" ry="9.9"/></g></g></svg>