<?xml version="1.0" encoding="utf-8"?>
<!-- Generator: Adobe Illustrator 25.4.1, SVG Export Plug-In . SVG Version: 6.00 Build 0)  -->
<svg version="1.1" id="Capa_1" xmlns="http://www.w3.org/2000/svg" xmlns:xlink="http://www.w3.org/1999/xlink" x="0px" y="0px"
	 viewBox="0 0 974 217.5" style="enable-background:new 0 0 974 217.5;" xml:space="preserve">
<style type="text/css">
	.st0{fill:#32A8EA;}
	.st1{fill:#433D3A;}
	.st2{fill:#2A3B47;}
	.st3{fill:#31434F;}
	.st4{fill:#554F4C;}
	.st5{fill:none;stroke:#85CBE9;stroke-width:2.92;stroke-miterlimit:10;}
	.st6{fill:#85CBE9;}
	.st7{fill:#3871A3;}
	.st8{fill:#FFFFFF;}
	.st9{fill:#4B6C87;}
	.st10{fill:#7093AD;}
	.st11{fill:#3C4F5E;}
	.st12{fill:#3F5663;}
	.st13{fill:#8BC53F;}
	.st14{fill:#7BA841;}
	.st15{fill:#A8CD6E;}
	.st16{fill:none;stroke:#85CBE9;stroke-width:2.92;stroke-linecap:round;stroke-linejoin:round;stroke-dasharray:6.82;}
	.st17{fill:none;stroke:#85CBE9;stroke-width:2.92;stroke-linecap:round;stroke-linejoin:round;}
	.st18{fill:none;stroke:#85CBE9;stroke-width:2.92;stroke-linecap:round;stroke-linejoin:round;stroke-dasharray:6.84,6.84;}
	.st19{fill:none;stroke:#3871A3;stroke-width:2.36;stroke-linecap:round;stroke-miterlimit:10;}
	.st20{fill:#91C8E6;}
	.st21{fill:#1F6F93;}
	.st22{fill:#E9E5CA;}
	.st23{fill:#FAAF40;}
	.st24{fill:#C57829;}
	.st25{fill:#F1F1F2;}
	.st26{fill:#F6921E;}
	.st27{fill:#5A4A42;}
	.st28{fill:#C7B299;}
	.st29{fill:#AD9982;}
	.st30{fill:#FFC271;}
	.st31{fill:#FFD39F;}
	.st32{fill:#776968;}
	.st33{fill:#385A96;}
	.st34{fill:#4E7CBF;}
	.st35{fill:#554B48;}
	.st36{fill:#4264AC;}
	.st37{fill:#FF9700;}
	.st38{fill:#FF3E55;}
	.st39{fill:#FF647E;}
	.st40{fill:#D14261;}
	.st41{fill:#534741;}
	.st42{fill:#E0682E;}
	.st43{fill:#B79F86;}
	.st44{fill:#FFBB09;}
	.st45{fill:#FF9E00;}
	.st46{fill:#0097D8;}
	.st47{fill:#147EAD;}
</style>
<g id="Capa_2_00000102515500888498560890000010001210103245100731_">
	<g id="Large">
		<polygon class="st0" points="974.8,63.1 950.8,63.1 950.8,83.9 925.3,83.9 925.3,106.6 904.8,106.6 904.8,138.7 887,138.7 
			887,123.6 858.9,123.6 858.9,89.6 824.4,106.6 824.4,82.2 809,82.2 809,40.7 789.9,40.7 789.9,26.5 769.4,26.5 769.4,61.4 
			751.6,61.4 751.6,128.3 727.3,128.3 727.3,111.3 709.4,111.3 709.4,97.1 676.2,97.1 676.2,124.5 658.3,124.5 658.3,102.8 
			628.9,102.8 628.9,116 613.6,116 613.6,129.2 597,129.2 597,153.8 577.8,153.8 577.8,106.6 548.4,106.6 548.4,129.2 533.1,129.2 
			533.1,153.8 514,153.8 514,127.3 487.1,147.2 487.1,129.2 468,129.2 468,118.8 446.3,103 446.3,160.4 429.6,160.4 429.6,97.1 
			401.5,97.1 401.5,117 382.4,117 382.4,134.9 361.9,134.9 361.9,160.4 323.6,160.4 323.6,129.2 291.7,129.2 291.7,100.9 
			276.4,100.9 276.4,87.7 250.8,87.7 250.8,153.8 229.1,153.8 229.1,127 201,106.7 201,114.1 165.2,114.1 165.2,92.4 152.5,92.4 
			152.5,84.9 125.6,84.9 125.6,103.7 116.7,103.7 116.7,111.3 109,111.3 109,117 83.5,117 83.5,109.4 60.5,109.4 60.5,118.8 
			34.9,118.8 34.9,132.1 22.2,132.1 22.2,110.3 0.8,110.3 0.8,217.5 974.8,217.5 		"/>
		<path class="st1" d="M501.2,58.5c0,0,0,4.3,0.9,5s3.3,0.7,3.7,1.8c0.4,1.2,0.3,17.2,0.3,17.2h1.3c0,0,0.4-16.7-0.4-17.9
			c-0.8-1.2-3.7-1.7-4.1-2.5c-0.4-0.9-0.2-3.5-0.2-3.5L501.2,58.5z"/>
		<path class="st2" d="M497.9,57.3c0,0,0,1.5,0.7,1.9c3,0,6.7,0.1,7.3-0.1c0.6-0.2,0.7-1.7,0.7-1.7L497.9,57.3z"/>
		<path class="st2" d="M497.7,49.1c0,0-0.4-6.3-0.1-6.6c0.2-0.1,0.5-0.1,0.7,0.1l0,0h0.1c0.1,0.2,0.1,6.5,0.1,6.5L497.7,49.1z"/>
		<path class="st2" d="M505,49.1c0,0-0.4-6.2-0.1-6.5c0.2-0.2,0.5-0.1,0.7,0c0,0,0.1,0.1,0.1,0.1c0.1,0.2,0.1,6.4,0.1,6.4L505,49.1z
			"/>
		<path class="st2" d="M508.9,49.3c0,0-0.2,1.6-0.5,3.2c-0.1,1.1-0.4,2.1-0.8,3.1c-0.4,0.7-3.5,0.2-10.3,0.2c-0.5-0.9-0.9-1.9-1-2.9
			c-0.4-1.8-0.7-3.8-0.7-3.8L508.9,49.3z"/>
		<path class="st1" d="M494.4,48c-0.4,0.2-0.1,2.3,0.1,2.4s14.8,0.4,15.2-0.1c0.4-0.6,0.4-2.1-0.1-2.2
			C509.3,47.9,495.1,47.6,494.4,48z"/>
		<path class="st3" d="M508.4,52.5c-0.1,1.1-0.4,2.1-0.8,3.1c-0.4,0.7-3.5,0.2-10.3,0.2c-0.5-0.9-0.9-1.9-1-2.9L508.4,52.5z"/>
		<path class="st4" d="M508.1,56.7c-0.1,0.5-0.1,1.1-0.3,1.2c-0.1,0.1-10.9,0.3-11.1-0.1c-0.3-0.6-0.4-1.2-0.4-1.8
			c0-0.2,0.1-0.4,0.1-0.4c0.1,0,11.3-0.2,11.5,0C508.2,55.8,508.1,56.1,508.1,56.7z"/>
		<path class="st1" d="M508.1,56.7c-0.1,0.5-0.1,1.1-0.3,1.2c-0.1,0.1-10.9,0.3-11.1-0.1c-0.3-0.6-0.4-1.2-0.4-1.8
			c0.3,0.4,0.7,0.8,1.2,1L508.1,56.7z"/>
		<path class="st5" d="M571.5,98l-0.2,33.8c0.1,2.8-2.1,5.1-4.9,5.1c-0.1,0-0.1,0-0.1,0h-0.1l-54.5-0.2"/>
		<path class="st6" d="M571.7,102L571.7,102c-2.5,0-4.5-2-4.5-4.5l0,0l0,0c0.1-2.5,2-4.3,4.5-4.4l0,0c2.5,0,4.4,2,4.4,4.4l0,0
			C576.2,99.9,574.3,101.9,571.7,102C571.8,102,571.7,102,571.7,102z"/>
		<path class="st7" d="M571.7,99.6L571.7,99.6c-1.1,0-2-0.9-2-2l0,0c0-1.1,0.9-2,2-2.1h0.1c1.2,0.1,2,0.9,2,2.1l0,0
			C573.7,98.6,572.8,99.6,571.7,99.6z"/>
		<path class="st5" d="M403.4,61.8v20.8c0,1.7,1.4,3.1,3.1,3.1H422c1.7,0,3.2,1.4,3.2,3.2l-0.1,21.5c-0.1,1.7,1.4,3.2,3.1,3.3l0,0
			l0,0l56.9,0.3c1.7,0,3.1,1.4,3.2,3.1v18.4"/>
		<path class="st5" d="M500.2,130.3l0.1-31.4c-0.1-1.7,1.4-3.2,3.1-3.3l0,0h0.1l31.7,0.1c1.8-0.1,3.3-1.5,3.3-3.3l0.1-28.7"/>
		<path class="st8" d="M564.6,110.9c0.1-0.1,2.3-4.8-4.1-5.4c0.4-3.2-1.2-6-3.1-6.4c-1.2-0.3-2.4-0.3-3.5-0.1c0,0-1-3.5-3.5-3.8
			s-4.3-0.1-5.6,2.5s-0.3,4.2-0.3,4.2s-1.6-1.2-4.1,0.6c-1.4,0.9-2.3,2.7-2.1,4.4c0,0-3.7,0.1-3.5,3.9L564.6,110.9z"/>
		<path class="st9" d="M529.3,180c-0.7,0.3-11.6,0.4-25.7,0.4h-14.3l-48.5-0.4c-0.1-0.6,1.7-3.1,3.9-5.9l0.5-0.7
			c3.3-4.3,7.4-9.1,7.4-9.1l65,1c0,0,4.4,4.4,7.8,8.5l0.5,0.7C528,176.9,529.6,179.2,529.3,180z"/>
		<path class="st10" d="M529.3,180c-0.7,0.3-11.6,0.4-25.7,0.4h-14.3l-48.5-0.4c-0.1-0.6,1.7-3.1,3.9-5.9l81.2,0.4
			C528,176.9,529.6,179.2,529.3,180z"/>
		<path class="st2" d="M451.8,128.9c-1,2,0,36.3,0,36.3s64.4,0.8,65.8,0.1c1.4-0.7,1-35.8,0.4-36.2
			C517.3,128.6,453.8,128.2,451.8,128.9z"/>
		<path class="st11" d="M452.4,129.9c-0.9,1.8,0.1,34.2,0.1,34.2s63.1,0.7,64.4,0.1c1.3-0.7,1-33.7,0.4-34.2
			C516.6,129.6,454.4,129.3,452.4,129.9z"/>
		<path class="st3" d="M514,161.1c-0.7,0.1-10.6,0.2-22.2,0.3h-15.9c-11.1-0.1-20.5-0.1-20.8-0.4c-0.3-0.3-0.2-2.1-0.3-3.1
			c-0.1-3-0.3-7.7-0.4-12.3c-0.1-6.4,0.1-12.6,0.7-12.8c0.6-0.2,9.7-0.4,20.6-0.5h9.6c7.5,0.1,14.8,0.1,20.3,0.2l5.4,0.1l2.8,0.2
			C514.6,133.5,515.1,160,514,161.1z"/>
		<path class="st12" d="M485.3,132.2l-30.5,25.6c-0.1-3-0.3-7.7-0.4-12.3l21.2-13.3L485.3,132.2L485.3,132.2z"/>
		<path class="st12" d="M511,132.6l-19.3,28.8h-15.9c5.6-5.6,27.3-27,29.7-29L511,132.6z"/>
		<path class="st8" d="M495.2,149h-20.3c-0.9,0-1.6-0.7-1.6-1.6l0,0l0,0c0-0.9,0.7-1.7,1.7-1.7l20.2,0.1c0.9,0,1.6,0.7,1.6,1.6l0,0
			l0,0C496.7,148.3,496,149,495.2,149z"/>
		<path class="st13" d="M490.3,148.5h-15.1c-0.7-0.1-1.2-0.6-1.2-1.2l0,0c0-0.7,0.6-1.2,1.2-1.2h15.1c0.7,0,1.2,0.6,1.2,1.2l0,0
			C491.5,147.9,491,148.5,490.3,148.5z"/>
		<path class="st14" d="M475,148c-0.4-0.2-0.7-0.7-0.4-1.2l0,0l0,0c0.2-0.4,0.7-0.7,1.1-0.6c0.1,0,13.2-0.1,13.5,0.2
			c0.4,0.3,0.1,0.6-1.9,0.5c-2-0.1-11.1-0.1-11.5,0C475.4,147.1,475.8,148.2,475,148z"/>
		<path class="st15" d="M478.1,147.4c-0.1,0-2-0.1-2.1,0.1c-0.1,0.2,0.1,0.6,0.8,0.6c0.7,0,6.5,0.1,6.5-0.1S478.1,147.4,478.1,147.4
			z"/>
		<path class="st2" d="M440.7,179.9c0,0-0.1,3.3,0.9,3.6c6.2,0.1,85.7,0.9,87.7,0.4c0.1-2-0.1-3.8-0.1-3.8L440.7,179.9z"/>
		<path class="st3" d="M498.1,179l-26.1-0.1c-0.3,0-0.5-0.1-0.4-0.3l1.1-3.5c0.1-0.2,0.4-0.4,0.7-0.4l23.6,0.1
			c0.2,0,0.5,0.1,0.7,0.3l1,3.5C498.6,178.8,498.3,179,498.1,179"/>
		<path class="st3" d="M455.3,167.4h-2.8c-0.4,0-0.7-0.1-0.6-0.1l0.1-0.2l0.8-0.1h2.8c0.4,0,0.7,0.1,0.7,0.1l-0.2,0.2
			C456.1,167.3,455.7,167.4,455.3,167.4"/>
		<path class="st3" d="M460.1,167.4h-2.8c-0.4,0-0.7-0.1-0.6-0.1l0.1-0.2c0-0.1,0.4-0.1,0.8-0.1h2.8c0.4,0,0.7,0.1,0.7,0.1l-0.1,0.2
			C460.8,167.3,460.5,167.4,460.1,167.4"/>
		<path class="st3" d="M464.8,167.4H462c-0.4,0-0.7-0.1-0.7-0.1l0.1-0.2h3.6c0.4,0,0.7,0.1,0.7,0.1l-0.1,0.2H464.8"/>
		<path class="st3" d="M469.6,167.5h-2.8c-0.4,0-0.7-0.1-0.7-0.1l0.1-0.2c0-0.1,0.4-0.1,0.7-0.1h2.8c0.4,0,0.7,0.1,0.7,0.1v0.2
			C470.5,167.4,470.1,167.5,469.6,167.5"/>
		<path class="st3" d="M474.4,167.5h-2.8c-0.4,0-0.7-0.1-0.7-0.1v-0.2c0-0.1,0.4-0.1,0.7-0.1h2.9c0.4,0,0.7,0.1,0.7,0.1v0.2
			C475.2,167.4,474.8,167.5,474.4,167.5"/>
		<path class="st3" d="M479.2,167.5h-2.8c-0.4,0-0.7-0.1-0.7-0.1v-0.2h3.5c0.4,0,0.7,0.1,0.7,0.1v0.2H479.2"/>
		<path class="st3" d="M483.9,167.6h-2.8c-0.4,0-0.7-0.1-0.7-0.1v-0.2l0.7-0.1h2.8c0.4,0,0.7,0.1,0.7,0.1v0.2
			C484.7,167.5,484.4,167.6,483.9,167.6"/>
		<path class="st3" d="M488.8,167.6h-2.9l-0.7-0.1v-0.2l0.7-0.1h2.8l0.7,0.1v0.2C489.4,167.5,489.2,167.6,488.8,167.6"/>
		<path class="st3" d="M493.6,167.6h-2.9l-0.7-0.1v-0.2h3.5c0.4,0,0.7,0.1,0.7,0.1v0.2H493.6"/>
		<path class="st3" d="M498.3,167.6h-2.9l-0.7-0.1v-0.2c0-0.1,0.3-0.1,0.7-0.1h2.8c0.4,0,0.8,0.1,0.8,0.1v0.2
			C499,167.6,498.7,167.6,498.3,167.6"/>
		<path class="st3" d="M503.1,167.6h-2.9l-0.7-0.1v-0.2c0-0.1,0.3-0.1,0.7-0.1h2.8l0.7,0.1l0.1,0.2
			C503.8,167.6,503.6,167.6,503.1,167.6"/>
		<path class="st3" d="M507.9,167.6h-2.8c-0.4,0-0.8-0.1-0.8-0.1l-0.1-0.2h3.5l0.8,0.1l0.1,0.2H507.9"/>
		<path class="st3" d="M512.7,167.7h-2.8c-0.4,0-0.8-0.1-0.8-0.1l-0.1-0.2c-0.1-0.1,0.2-0.1,0.7-0.1h2.8c0.4,0,0.8,0.1,0.8,0.1
			l0.1,0.2C513.3,167.6,513,167.7,512.7,167.7"/>
		<path class="st3" d="M517.5,167.7h-2.8c-0.3,0-0.6,0-0.9-0.1l-0.1-0.2c0-0.1,0.2-0.1,0.7-0.1h2.8l0.8,0.1l0.1,0.2
			C518.1,167.6,517.8,167.7,517.5,167.7"/>
		<path class="st3" d="M455.1,168.2h-3.8l0.5-0.7h3.9l-0.5,0.7H455.1"/>
		<path class="st3" d="M461.7,169.1h-3.8l0.4-0.7h4l-0.4,0.7H461.7"/>
		<path class="st3" d="M462.3,170h-3.9l0.4-0.8h4.1l-0.4,0.7L462.3,170"/>
		<path class="st3" d="M464.4,171h-4l0.4-0.8h4c0.1,0,0.1,0,0.1,0.1l-0.4,0.7H464.4"/>
		<path class="st3" d="M452.2,172h-4.1l0.7-0.9h4.2l-0.7,0.9L452.2,172"/>
		<path class="st3" d="M457.5,172.1h-4.1l0.7-0.9h4.2l-0.5,0.9L457.5,172.1"/>
		<path class="st3" d="M462.6,172.1h-4.1l0.6-0.9h4.2l-0.4,0.9H462.6"/>
		<path class="st3" d="M469,172.1h-5.4l0.4-0.9h5.5l-0.3,0.9H469"/>
		<path class="st3" d="M500.9,172.3h-5.4l-0.1-0.9h5.5l0.3,0.9L500.9,172.3"/>
		<path class="st3" d="M506.2,172.3H502l-0.3-0.9h4.1l0.4,0.9L506.2,172.3"/>
		<path class="st3" d="M494.4,172.3h-24l-0.4-0.1l0.3-0.8h0.5l23.4,0.1h0.4l0.2,0.8H494.4"/>
		<path class="st3" d="M469.4,171h-4l0.4-0.7h4.1l-0.3,0.8L469.4,171"/>
		<path class="st3" d="M474.5,171h-4.1l0.3-0.8h4.1l-0.2,0.8H474.5"/>
		<path class="st3" d="M479.5,171.1h-4.1l0.2-0.8h4.1l-0.1,0.7L479.5,171.1"/>
		<path class="st3" d="M484.4,171.1h-4.1v-0.7h4.1L484.4,171.1L484.4,171.1"/>
		<path class="st3" d="M489.4,171.1h-4.1v-0.8h4.1L489.4,171.1L489.4,171.1"/>
		<path class="st3" d="M494.4,171.2h-4l-0.1-0.8h4.1l0.2,0.7L494.4,171.2"/>
		<path class="st3" d="M499.4,171.2h-4l-0.2-0.7h4.1l0.3,0.8L499.4,171.2"/>
		<path class="st3" d="M504.5,171.2h-4.1l-0.3-0.8h4.1l0.4,0.8H504.5"/>
		<path class="st3" d="M510.8,172.4h-3l-0.7-0.1l-0.1-0.2c0-0.1,0.2-0.1,0.7-0.1h3.7l0.1,0.3C511.4,172.3,511.2,172.3,510.8,172.4"
			/>
		<path class="st3" d="M515.9,172.4h-3l-0.7-0.1L512,172c-0.1-0.1,0.2-0.1,0.6-0.1h3l0.8,0.1l0.1,0.2
			C516.6,172.3,516.3,172.4,515.9,172.4"/>
		<path class="st3" d="M515.5,171.8h-2.9c-0.3,0-0.6,0-0.8-0.1l-0.1-0.2c-0.1-0.1,0.2-0.1,0.6-0.1h3c0.4,0,0.7,0.1,0.7,0.1l0.2,0.2
			C516.2,171.8,515.9,171.8,515.5,171.8"/>
		<path class="st3" d="M521.1,172.4h-3l-0.8-0.1l-0.1-0.2c-0.1-0.1,0.2-0.1,0.6-0.1h3c0.4,0,0.8,0.1,0.8,0.1l0.2,0.2
			C521.7,172.3,521.4,172.4,521.1,172.4"/>
		<path class="st3" d="M467.2,170.1h-3.9l0.4-0.7h4.1l-0.3,0.7H467.2"/>
		<path class="st3" d="M472.2,170.1h-4l0.3-0.7h4.1l-0.2,0.8L472.2,170.1"/>
		<path class="st3" d="M477.1,170.1h-3.9l0.1-0.8h4.1l-0.1,0.7L477.1,170.1"/>
		<path class="st3" d="M482.1,170.2h-4l0.1-0.7h4.1v0.7H482.1"/>
		<path class="st3" d="M487,170.2h-3.9v-0.7h4.1v0.8L487,170.2"/>
		<path class="st3" d="M491.7,170.2h-3.9v-0.8h4.1l0.1,0.7L491.7,170.2"/>
		<path class="st3" d="M496.6,170.2h-3.9l-0.1-0.7h4.1l0.1,0.7H496.6"/>
		<path class="st3" d="M501.5,170.2h-4l-0.2-0.7h4.1l0.3,0.8L501.5,170.2"/>
		<path class="st3" d="M506.4,170.2h-4l-0.3-0.7h4.1l0.4,0.7H506.4"/>
		<path class="st3" d="M511.2,170.3h-3.9l-0.4-0.7h4.1l0.4,0.7C511.4,170.4,511.4,170.4,511.2,170.3"/>
		<path class="st3" d="M509.4,171.2h-4.1l-0.4-0.7h4.1l0.4,0.7H509.4"/>
		<path class="st3" d="M519.8,170.3h-7.5l-0.4-0.7h7.6l0.6,0.7H519.8"/>
		<path class="st3" d="M520.6,171.3h-10.3l-0.4-0.7h10.4l0.6,0.7H520.6"/>
		<path class="st3" d="M457.4,170h-7.5l0.6-0.7h7.7l-0.4,0.7L457.4,170"/>
		<path class="st3" d="M459.3,171H449l0.6-0.7h10.3c0.1,0,0.2,0,0.2,0.1l-0.4,0.7L459.3,171"/>
		<path class="st3" d="M466.5,169.1h-3.8l0.4-0.7h4l-0.3,0.7L466.5,169.1"/>
		<path class="st3" d="M471.3,169.1h-3.8l0.3-0.7h4l-0.2,0.7L471.3,169.1"/>
		<path class="st3" d="M476.1,169.2h-3.8l0.2-0.7h3.9l-0.1,0.7H476.1"/>
		<path class="st3" d="M480.9,169.2h-3.8l0.1-0.7h4v0.7L480.9,169.2"/>
		<path class="st3" d="M485.7,169.2h-3.9v-0.7h4L485.7,169.2L485.7,169.2"/>
		<path class="st3" d="M490.4,169.3h-3.8v-0.7h3.9L490.4,169.3L490.4,169.3"/>
		<path class="st3" d="M495.2,169.3h-3.8l-0.1-0.7h4l0.1,0.7C495.4,169.3,495.4,169.3,495.2,169.3"/>
		<path class="st3" d="M500.1,169.3h-3.9l-0.1-0.7h3.9l0.3,0.7L500.1,169.3"/>
		<path class="st3" d="M504.8,169.4h-3.9l-0.2-0.7h3.9l0.4,0.7H504.8"/>
		<path class="st3" d="M509.7,169.4h-3.9l-0.4-0.7h4l0.4,0.7L509.7,169.4"/>
		<path class="st3" d="M514.3,169.4h-3.8l-0.4-0.7h4l0.4,0.7L514.3,169.4"/>
		<path class="st3" d="M519.2,169.4h-3.8l-0.5-0.7h3.9l0.6,0.7H519.2"/>
		<path class="st3" d="M459.8,168.2h-3.8l0.4-0.7h3.9l-0.4,0.7H459.8"/>
		<path class="st3" d="M464.5,168.3h-3.8l0.4-0.7h3.9l-0.4,0.7H464.5"/>
		<path class="st3" d="M469.2,168.3h-3.8l0.4-0.7h3.8l-0.2,0.7H469.2"/>
		<path class="st3" d="M473.9,168.3H470l0.3-0.7h3.8l-0.1,0.7L473.9,168.3"/>
		<path class="st3" d="M478.7,168.4h-3.8l0.2-0.7h3.8v0.7H478.7"/>
		<path class="st3" d="M483.2,168.4h-3.8v-0.7h3.9v0.7H483.2"/>
		<path class="st3" d="M488,168.4h-3.8v-0.7h3.9v0.7L488,168.4"/>
		<path class="st3" d="M492.6,168.4h-3.8v-0.7h3.9v0.7L492.6,168.4"/>
		<path class="st3" d="M497.4,168.4h-3.8l-0.1-0.7h3.8l0.2,0.7C497.5,168.5,497.5,168.5,497.4,168.4"/>
		<path class="st3" d="M502.2,168.4h-3.8l-0.2-0.7h3.9l0.3,0.7L502.2,168.4"/>
		<path class="st3" d="M506.9,168.4H503l-0.3-0.7h3.9l0.4,0.7L506.9,168.4"/>
		<path class="st3" d="M511.4,168.5h-3.8l-0.4-0.7h3.8l0.4,0.7H511.4"/>
		<path class="st3" d="M518.2,168.5h-5.9l-0.4-0.6h6.2l0.4,0.6C518.6,168.6,518.4,168.6,518.2,168.5"/>
		<path class="st3" d="M456.5,169.1h-5.9l0.4-0.7h5.9c0.3,0,0.4,0,0.4,0.1l-0.4,0.6L456.5,169.1"/>
		<path class="st5" d="M423,177.1h-14.6c-1.9-0.1-3.4-1.6-3.5-3.5l0.1-70.3c0-3.8,3.1-6.9,6.9-6.9l0,0h0.1l46.8,0.2
			c1.9,0.1,3.4-1.4,3.5-3.3c0-0.1,0-0.1,0-0.1v-11"/>
		<path class="st6" d="M462.3,84.7L462.3,84.7c-2.5,0-4.4-2-4.4-4.4l0,0l0,0c0-2.5,2-4.4,4.4-4.4l0,0h0.1c2.5,0,4.4,2,4.4,4.4l0,0
			l0,0C466.8,82.7,464.8,84.7,462.3,84.7L462.3,84.7L462.3,84.7z"/>
		<path class="st7" d="M462.4,82.3L462.4,82.3c-1.2,0-2-0.9-2.1-2l0,0c0.1-1.2,0.9-2,2.1-2l0,0c1.1,0.1,2,0.9,2,2l0,0
			C464.4,81.4,463.5,82.3,462.4,82.3z"/>
		<path class="st6" d="M403.4,63.3L403.4,63.3c-2.5,0-4.4-2-4.4-4.4l0,0l0,0c0-2.5,2-4.4,4.4-4.4l0,0l0,0c2.5,0,4.5,2,4.5,4.5l0,0
			l0,0C407.9,61.4,405.8,63.3,403.4,63.3z"/>
		<path class="st7" d="M403.4,60.9L403.4,60.9c-1.1,0-2-0.9-2-2l0,0c0.1-1.1,0.9-2,2-2l0,0c1.1,0.1,2,0.9,2,2l0,0
			C405.5,60.1,404.5,60.9,403.4,60.9z"/>
		<path class="st6" d="M538.7,66.6L538.7,66.6c-2.5,0-4.4-2-4.4-4.4l0,0c0-2.5,2-4.4,4.4-4.4l0,0c2.5,0,4.5,2,4.5,4.5l0,0l0,0
			C543.2,64.8,541.1,66.6,538.7,66.6z"/>
		<path class="st7" d="M538.7,64.3L538.7,64.3c-1.1,0-2-0.9-2-2l0,0c0.1-1.1,0.9-2,2-2l0,0c1.1,0.1,2,0.9,2,2l0,0
			C540.8,63.4,539.8,64.3,538.7,64.3z"/>
		<path class="st6" d="M423.8,179.6L423.8,179.6c-1.4,0-2.6-1.2-2.6-2.6l0,0l0,0c0-1.4,1.2-2.6,2.6-2.6l0,0l0,0
			c1.4,0,2.6,1.2,2.6,2.6l0,0l0,0C426.4,178.4,425.2,179.6,423.8,179.6L423.8,179.6z"/>
		<path class="st6" d="M557.8,156.7L557.8,156.7c-1.4,0-2.6-1.2-2.6-2.6l0,0c0-1.4,1.2-2.6,2.6-2.7l0,0c1.4,0.1,2.6,1.2,2.7,2.7l0,0
			C560.4,155.5,559.2,156.7,557.8,156.7z"/>
		<path class="st6" d="M565.2,79.6c-2.5-2.5-6.6-2.5-9.1,0.1l-0.1,0.1c-2.3,2.4-2.5,6.2-0.4,8.7l1.4,2l2.8,4.4
			c0.3,0.4,0.9,0.6,1.4,0.3c0.1-0.1,0.2-0.2,0.3-0.3l2.8-4.4c0.5-0.8,1-1.5,1.6-2.2C568,85.6,567.6,81.8,565.2,79.6z"/>
		<path class="st7" d="M560.8,88.7L560.8,88.7c-2.4,0-4.3-2-4.3-4.3l0,0c0-2.4,1.9-4.3,4.3-4.3l0,0h0.1c2.4,0,4.3,2,4.3,4.3l0,0
			C565.1,86.8,563.2,88.7,560.8,88.7z"/>
		<path class="st3" d="M560.8,86.6L560.8,86.6c-1.2,0.1-2.1-0.9-2.2-2l0,0v-0.1l0,0c0.1-1.2,1-2.1,2.2-2.2l0,0
			c1.2,0.1,2.2,1,2.2,2.2l0,0C562.9,85.6,562,86.6,560.8,86.6z"/>
		<path class="st16" d="M549.7,102.3v18.7c0,2.5,2,4.6,4.6,4.6h20.1c2.5,0.1,4.6,2.2,4.5,4.7V149c-0.1,2.5-2.1,4.6-4.6,4.6H557"/>
		<path class="st6" d="M549.7,110.1L549.7,110.1c-2.5,0-4.4-2-4.4-4.4v-0.1l0,0c0-2.5,2-4.4,4.4-4.4h0.1c2.4,0.1,4.3,2,4.4,4.4l0,0
			C554.2,108.1,552.1,110.1,549.7,110.1L549.7,110.1L549.7,110.1z"/>
		<path class="st7" d="M549.7,107.6L549.7,107.6c-1.1,0-2-0.9-2-2l0,0c0.1-1.1,0.9-2,2-2l0,0c1.2,0,2,0.9,2.1,2l0,0
			C551.7,106.7,550.8,107.6,549.7,107.6z"/>
		<path class="st8" d="M499.4,90.2c-0.1-0.1-2.6-5.4,4.7-6.1c-0.4-3.5,1.4-6.8,3.5-7.2c1.4-0.2,2.8-0.2,4.1,0c0,0,1.2-4.1,4-4.3
			c2.8-0.3,4.8,0,6.3,2.8c1.5,2.8,0.3,4.8,0.3,4.8s1.7-1.4,4.7,0.7c1.7,1.1,2.5,3,2.2,5c0,0,4.2,0.1,3.9,4.4L499.4,90.2z"/>
		<path class="st8" d="M412.2,131.1c-0.1-0.1-1.7-3.6,3.1-4.1c-0.3-2.4,0.9-4.6,2.4-4.9c0.9-0.1,1.8-0.1,2.7,0c0,0,0.8-2.7,2.7-2.8
			s3.2-0.1,4.2,1.8c0.6,0.9,0.7,2.2,0.1,3.2c0,0,1.2-0.9,3.1,0.5c1.2,0.7,1.7,2,1.5,3.3c1.4,0,2.6,1.2,2.6,2.6l0,0v0.3H412.2z"/>
		<line class="st17" x1="514.4" y1="84.2" x2="514.4" y2="86.6"/>
		<path class="st18" d="M514.3,91.5v9.7c0,3.3-2.6,5.9-5.9,5.9h-0.1l-107.3-0.4c-3.3,0-5.9,2.6-5.9,5.9v18.3c0,3.3,2.6,5.9,5.9,5.9
			h15.2c2.5,0,4.8-1.6,5.6-4"/>
		<line class="st17" x1="422" y1="130.4" x2="422" y2="128"/>
		<path class="st6" d="M514.5,88.4L514.5,88.4c-2.5,0-4.5-2-4.5-4.5l0,0l0,0c0.1-2.5,2-4.4,4.5-4.4l0,0c2.5,0,4.4,2,4.4,4.4l0,0
			C518.9,86.3,516.9,88.4,514.5,88.4z"/>
		<path class="st7" d="M514.5,86L514.5,86c-1.1,0-2-0.9-2-2l0,0c0.1-1.1,0.9-2,2-2l0,0c1.1,0.1,2,0.9,2,2l0,0
			C516.4,85,515.6,86,514.5,86z"/>
		<path class="st6" d="M422,130.8L422,130.8c-1.8,0-3.3-1.5-3.3-3.3l0,0l0,0c0-1.9,1.5-3.4,3.4-3.4l0,0l0,0c1.9,0.1,3.3,1.5,3.3,3.4
			l0,0c0.1,1.7-1.3,3.3-3,3.3c-0.1,0-0.1,0-0.1,0H422z"/>
		<path class="st7" d="M422,129L422,129c-0.9,0-1.5-0.7-1.5-1.5l0,0l0,0c0-0.9,0.7-1.5,1.5-1.6l0,0c0.9,0,1.6,0.7,1.6,1.6l0,0l0,0
			C423.6,128.3,422.9,129,422,129L422,129L422,129z"/>
		<circle class="st6" cx="405" cy="153.1" r="10.9"/>
		<circle class="st8" cx="404.8" cy="152.7" r="8.7"/>
		<path class="st19" d="M408.1,155.3c-0.8-1.6-2.8-2.3-4.3-1.5c-0.7,0.4-1.2,0.9-1.5,1.5"/>
		<path class="st19" d="M409.9,153.8c-1.3-2.6-4.4-3.7-7-2.5c-1.1,0.5-2,1.4-2.5,2.4"/>
		<path class="st19" d="M412,152.6c-1.3-2.6-3.9-4.3-6.8-4.3c-2.9,0-5.6,1.7-6.9,4.2"/>
		<path class="st7" d="M406.3,156.4c0,0.6-0.5,1.1-1.1,1.1c-0.6,0-1.1-0.5-1.1-1.1c0-0.6,0.5-1.1,1.1-1.1
			C405.8,155.3,406.3,155.8,406.3,156.4z"/>
		<path class="st3" d="M540.6,157.9l-5-0.6h-0.1v-0.2c0-0.4,0-0.9,0.1-1.4c0.1-1.7,0.2-4.1,0.4-4.2s3.9-0.3,4,0.1
			c0.2,1.4,0.4,2.8,0.4,4.2C540.5,156.9,540.6,157.9,540.6,157.9z"/>
		<path class="st3" d="M547.6,157.6c-0.1,0.2-1.4,1.7-2.4,3l-0.9,1.1l-0.7,0.7v-0.1l-3-4.2l1.6-1.4c0.9-0.8,1.7-1.5,2.8-2.2
			C545.2,154.5,547.7,157.3,547.6,157.6z"/>
		<path class="st3" d="M548.7,166.8L545,167h-2.2l0.7-4.7v-0.7h0.7l1.2,0.1c1.5,0.1,3.4,0.4,3.5,0.7
			C549.1,162.6,549.1,166.6,548.7,166.8z"/>
		<path class="st3" d="M546.8,171.2c-0.1,0.4-2.8,2.8-3.1,2.7c-0.9-0.8-1.7-1.7-2.5-2.6l-0.7-0.8l-0.9-0.9l-0.2-0.2l3.3-2.3l1-0.7
			l0.5,0.7c0.1,0.2,0.3,0.4,0.4,0.7C544.9,168,546.8,170.9,546.8,171.2z"/>
		<path class="st3" d="M540.6,169.7c-0.1,0.3-0.1,0.5-0.1,0.8c-0.1,0.3-0.1,0.7-0.1,1.1c-0.1,1.7-0.4,3.8-0.6,3.9
			c-0.2,0.1-3.9,0.1-4-0.2c-0.1-0.4-0.1-2-0.2-3.5c0-0.4-0.1-0.7-0.1-0.9v-0.7c0-0.4,0-0.8-0.1-1.2l4.2,0.7L540.6,169.7z"/>
		<path class="st3" d="M535.8,170.5c-0.1,0.1-0.1,0.2-0.3,0.3l-0.7,0.7c-1.1,1.2-2.9,2.9-3.2,2.8c-0.3-0.1-3-2.6-2.9-3
			c0.1-0.4,1.4-1.9,2.4-3.3l1.3-1.7l3,3.8L535.8,170.5z"/>
		<path class="st3" d="M532.5,161l-0.4,5.4h-1.6c-1.5-0.1-3.7-0.1-3.8-0.4c-0.1-0.2-0.4-4.1-0.1-4.3c1.2-0.3,2.5-0.4,3.8-0.6
			L532.5,161z"/>
		<path class="st2" d="M532.1,166.5h-1.6c-0.3-0.9-0.4-1.9-0.4-2.8c0-0.8,0.1-1.6,0.4-2.4l2.1-0.2L532.1,166.5z"/>
		<path class="st2" d="M540.6,157.9l-5-0.6L532,161l-1.1-1.1c0.7-1.6,2-2.9,3.5-3.8l1.2,0.9c0-0.4,0-0.9,0.1-1.4
			c0.7-0.2,1.5-0.4,2.3-0.4c0.9,0,1.7,0.1,2.5,0.4C540.5,156.9,540.6,157.9,540.6,157.9z"/>
		<path class="st2" d="M545,167h-0.7c0.1,0.2,0.3,0.4,0.4,0.7c-0.8,1.5-2,2.8-3.5,3.5l-0.7-0.8c-0.1,0.3-0.1,0.7-0.1,1.1
			c-0.8,0.3-1.7,0.5-2.5,0.5c-0.8,0-1.5-0.1-2.2-0.4c0-0.4-0.1-0.7-0.1-0.9l-0.7,0.7c-1.6-0.7-2.9-1.9-3.7-3.4l1.3-1.7l3,3.8
			c0-0.4,0-0.8-0.1-1.2l4.2,0.7l-0.2-0.2l3.3-2.3l0.7-4.7l-3-4.2l1.6-1.4c1.4,0.9,2.5,2.4,3.1,4l-0.9,1.1l1.2,0.1
			c0.1,0.7,0.2,1.2,0.2,1.9C545.7,164.9,545.5,166,545,167z"/>
		<path class="st3" d="M535.7,157.2L535.7,157.2L532,161l-1.1-1.1c-1.2-1.2-2.8-2.8-2.8-3s2.2-3.4,2.6-3.3c0.4,0.1,2.2,1.5,3.6,2.5
			l1.2,0.9L535.7,157.2z"/>
		<path class="st9" d="M537.9,156.6c-3.7,0-6.6,3.1-6.7,7c0,3.6,2.9,6.6,6.5,6.6c3.6,0,6.6-2.9,6.7-6.5l0,0
			C544.5,159.9,541.6,156.6,537.9,156.6z M537.9,162.6c0.6,0,1,0.4,1,1l0,0l0,0c0,0.6-0.4,1-1,1c-0.6,0-1-0.4-1-1l0,0
			C536.9,163.1,537.3,162.6,537.9,162.6L537.9,162.6L537.9,162.6z"/>
		<path class="st2" d="M537.9,157.5c-3.3,0.1-5.9,2.9-5.8,6.2c-0.1,3.3,2.3,6,5.6,6.2l0,0h0.1c3.2,0.1,5.8-2.7,5.8-6.1
			C543.7,160.3,541.1,157.5,537.9,157.5z M537.9,162.6c0.6,0,1,0.4,1,1l0,0l0,0c0,0.6-0.4,1-1,1c-0.6,0-1-0.4-1-1l0,0
			C536.9,163.1,537.3,162.6,537.9,162.6L537.9,162.6L537.9,162.6z"/>
		<path class="st9" d="M537.9,158.7c-2.8-0.2-5.2,1.9-5.4,4.7c-0.2,2.8,1.9,5.2,4.7,5.4c2.8,0.2,5.2-1.9,5.4-4.7v-0.4
			C542.6,161,540.5,158.8,537.9,158.7z M537.9,162.6c0.6,0,1,0.4,1,1l0,0l0,0c0,0.6-0.4,1-1,1c-0.6,0-1-0.4-1-1l0,0
			C536.9,163.1,537.3,162.6,537.9,162.6L537.9,162.6L537.9,162.6z"/>
		<path class="st3" d="M541.5,162.5c-0.4-2-2.5-3.2-4.4-2.8c-1.3,0.4-2.4,1.4-2.8,2.7c-0.1,0.4-0.2,0.8-0.2,1.2
			c0,2.1,1.7,3.8,3.8,3.8s3.8-1.7,3.8-3.8C541.6,163.3,541.6,162.8,541.5,162.5z M537.9,162.6c0.6,0,1,0.4,1,1l0,0l0,0
			c0,0.6-0.4,1-1,1c-0.6,0-1-0.4-1-1l0,0C536.9,163.1,537.3,162.6,537.9,162.6L537.9,162.6L537.9,162.6z"/>
		<path class="st2" d="M537.9,159.7c-1.7,0.1-3.1,1.2-3.5,2.8c0.4,1.7,1.9,2.8,3.5,2.8c1.7,0,3.1-1.2,3.6-2.8
			C541.1,160.8,539.6,159.7,537.9,159.7z M537.9,164.7c-0.6-0.1-1-0.5-1-1.1s0.4-1,1-1l0,0l0,0c0.6,0,1,0.4,1,1l0,0l0,0
			C538.9,164.2,538.4,164.7,537.9,164.7z"/>
		<path class="st3" d="M561.5,150.9l-3.3-2.2l0,0l0.5-1c0.4-0.9,1-1.9,1.6-2.8c0.3-0.1,2.8,1.2,2.8,1.4c-0.3,1.1-0.7,2.2-1.1,3.2
			L561.5,150.9z"/>
		<path class="st3" d="M566.4,153.2c-0.1,0.1-1.5,0.7-2.6,1.2l-1,0.4l-0.7,0.3l0,0l-0.8-4.1l1.5-0.4c0.9-0.3,1.7-0.5,2.6-0.6
			C565.7,150.3,566.6,153.1,566.4,153.2z"/>
		<path class="st3" d="M564.4,160.1l-2.7-1.2l-0.6-0.3l-1-0.5l0,0l2-3l0.2-0.4l0.4,0.2l0.9,0.6c0.8,0.5,1.6,1.1,2.2,1.7
			C565.9,157.5,564.6,160.1,564.4,160.1z"/>
		<path class="st3" d="M561.5,162.4c-0.1,0.3-2.8,1-3,0.8c-0.4-0.9-0.7-1.7-0.9-2.7l-0.2-0.8l-0.3-0.9v-0.3l3-0.4h0.9
			c0,0.2,0,0.4,0.1,0.7c0.1,0.2,0.1,0.4,0.1,0.7C561.5,160.4,561.5,161.4,561.5,162.4z"/>
		<path class="st3" d="M557.7,159.2l-0.3,0.5l-0.4,0.7c-0.4,0.9-0.9,1.7-1.6,2.5c-0.3,0.1-2.8-1.2-2.8-1.5c0-0.3,0.6-1.7,0.9-2.6
			c0.1-0.2,0.2-0.4,0.3-0.7c0.1-0.1,0.1-0.3,0.1-0.4l0.4-0.9l2.8,2L557.7,159.2z"/>
		<path class="st3" d="M554.2,158.1h-0.3l-0.7,0.2c-1,0.4-2.1,0.7-3.2,0.9c-0.2-0.2-1.2-3-1.1-3.1l2.7-1.4l1.5-0.7l0.9,3.8
			L554.2,158.1z"/>
		<path class="st3" d="M554.7,150.3l-2,3.7l-1.1-0.7c-0.9-0.4-1.8-0.9-2.6-1.6c-0.1-0.3,1-3,1.3-3l2.8,1L554.7,150.3z"/>
		<path class="st2" d="M552.8,153.9l-1.1-0.7c0.1-1.3,0.7-2.6,1.5-3.6l1.5,0.6L552.8,153.9z"/>
		<path class="st2" d="M561.5,150.9l-3.3-2.2l-3.8,1.3l-0.4-1.2c1-0.8,2.3-1.3,3.6-1.4l0.6,1.1l0.5-1l1.7,0.6
			c0.6,0.4,1.2,0.8,1.6,1.3L561.5,150.9z"/>
		<path class="st2" d="M561.7,158.9l-0.6-0.3c0.1,0.2,0.1,0.4,0.1,0.7c-1,0.8-2.3,1.2-3.6,1.2l-0.2-0.8l-0.4,0.7
			c-0.7-0.1-1.3-0.3-2-0.6c-0.5-0.3-1-0.7-1.4-1.1c0.1-0.2,0.2-0.4,0.3-0.7l-0.7,0.2c-0.9-1-1.4-2.3-1.6-3.7l1.5-0.7l0.9,3.8
			l0.4-0.9l2.8,2v-0.3l3-0.4l2-3l-0.8-4.1l1.5-0.4c0.7,1.2,1,2.5,0.9,3.8l-1,0.4l0.9,0.6c-0.1,0.5-0.3,0.9-0.5,1.4
			C562.8,157.6,562.3,158.4,561.7,158.9z"/>
		<path class="st3" d="M558.2,148.7L558.2,148.7l-3.8,1.3l-0.4-1.2c-0.4-0.9-0.7-2-0.9-3c0.1-0.3,2.7-1.6,2.9-1.4
			c0.2,0.2,1.2,2,1.7,3l0.6,1.1C558.1,148.7,558.1,148.7,558.2,148.7z"/>
		<path class="st9" d="M559.9,149.1c-2.5-1.2-5.6-0.2-6.8,2.3l0,0c0,0.1-0.1,0.1-0.1,0.2c-1.2,2.7-0.2,5.9,2.4,7.3
			c2.4,1.2,5.4,0.3,6.6-2.2c0,0,0-0.1,0.1-0.1c0.1-0.1,0.1-0.2,0.1-0.3C563.5,153.7,562.5,150.6,559.9,149.1z M558.1,153.3
			c0.4,0.2,0.5,0.7,0.3,1.1c-0.1,0.4-0.4,0.6-0.8,0.5l0,0l-0.2-0.1c-0.4-0.2-0.5-0.7-0.4-1.1C557.2,153.3,557.6,153.1,558.1,153.3
			L558.1,153.3L558.1,153.3z"/>
		<path class="st2" d="M559.7,149.7c-2.2-1-4.9-0.1-5.9,2v0.2c-1.1,2.3-0.1,5.1,2.1,6.4c2.1,1.1,4.7,0.3,5.9-1.8l0.1-0.4
			C562.9,153.7,562,150.9,559.7,149.7z M558.1,153.3c0.4,0.2,0.5,0.7,0.3,1.1c-0.1,0.4-0.4,0.6-0.8,0.5l0,0l-0.2-0.1
			c-0.4-0.2-0.5-0.7-0.4-1.1C557.2,153.3,557.6,153.1,558.1,153.3L558.1,153.3L558.1,153.3z"/>
		<path class="st9" d="M559.3,150.5c-1.9-0.9-4.1-0.1-4.9,1.8l0,0l0,0c-0.9,2-0.1,4.3,1.7,5.3c1.7,0.9,3.9,0.1,4.8-1.6v-0.1v-0.2
			C561.8,153.8,561.2,151.5,559.3,150.5z M558.1,153.3c0.4,0.2,0.5,0.7,0.3,1.1c-0.1,0.4-0.4,0.6-0.8,0.5l0,0l-0.2-0.1
			c-0.4-0.2-0.5-0.7-0.4-1.1C557.2,153.3,557.6,153.1,558.1,153.3L558.1,153.3L558.1,153.3z"/>
		<path class="st3" d="M560.6,154.5c0.1-1.3-0.4-2.6-1.6-3.3c-1.2-0.6-2.5-0.3-3.4,0.7c-0.2,0.2-0.4,0.5-0.5,0.8
			c-0.7,1.5-0.2,3.4,1.3,4.2c1.4,0.7,3.1,0.1,3.8-1.3c0,0,0-0.1,0.1-0.1c0.1,0,0.1,0,0.1-0.1C560.5,155.1,560.5,154.8,560.6,154.5z
			 M558.1,153.3c0.4,0.2,0.5,0.7,0.3,1.1c-0.1,0.4-0.4,0.6-0.8,0.5l0,0l-0.2-0.1c-0.4-0.2-0.5-0.7-0.4-1.1
			C557.2,153.3,557.6,153.1,558.1,153.3L558.1,153.3L558.1,153.3z"/>
		<path class="st2" d="M559,151.2c-1.2-0.6-2.5-0.3-3.4,0.7c-0.2,1.3,0.4,2.6,1.6,3.3c1.2,0.7,2.6,0.4,3.4-0.7
			C560.7,153.1,560.2,151.8,559,151.2z M557.3,154.7c-0.4-0.2-0.5-0.7-0.4-1.1c0.2-0.4,0.7-0.6,1.1-0.4l0,0l0,0
			c0.4,0.2,0.5,0.7,0.3,1.1c-0.1,0.4-0.4,0.6-0.8,0.5l0,0L557.3,154.7L557.3,154.7z"/>
		<path class="st3" d="M561.5,170.1l-3.3-2.2h-0.1v-0.1c0.1-0.4,0.3-0.7,0.5-0.9c0.6-1.2,1.4-2.8,1.6-2.8s2.8,1.2,2.8,1.4
			c-0.3,1.1-0.7,2.1-1.1,3.1L561.5,170.1z"/>
		<path class="st3" d="M566.4,172.4l-2.7,1.2l-0.9,0.4l-0.7,0.3v-0.1l-0.7-4.1l1.5-0.4c1.1-0.3,2.5-0.7,2.6-0.5
			C566,170.2,566.2,171.3,566.4,172.4z"/>
		<path class="st3" d="M564.4,179.2l-2.7-1.2l-0.6-0.3l-1-0.4l0,0l2-3l0.3-0.4l0.4,0.3l0.9,0.5c0.8,0.5,1.5,1.1,2.2,1.7
			C565.9,176.6,564.6,179.3,564.4,179.2z"/>
		<path class="st3" d="M561.5,181.6c-0.1,0.2-2.8,1-3,0.7c-0.4-0.9-0.7-1.7-0.9-2.7l-0.2-0.8c-0.1-0.4-0.2-0.7-0.3-0.9v-0.2l3-0.4
			l0.9-0.1c0,0.2,0,0.4,0.1,0.7c0.1,0.2,0.1,0.4,0.1,0.7C561.5,179.7,561.7,181.5,561.5,181.6z"/>
		<path class="st3" d="M557.7,178.3l-0.3,0.5l-0.4,0.7c-0.4,0.9-1,1.7-1.6,2.5c-0.3,0.1-2.8-1.3-2.8-1.6c0.1-0.3,0.5-1.4,0.9-2.5
			c0.1-0.2,0.1-0.5,0.3-0.7c0.1-0.1,0.1-0.3,0.1-0.4l0.4-0.9l2.8,2L557.7,178.3z"/>
		<path class="st3" d="M554.2,177.2h-0.3l-0.7,0.3c-1.2,0.4-3,0.9-3.2,0.8s-1.3-2.9-1.1-3.1l2.7-1.4l1.5-0.7l0.9,3.8L554.2,177.2z"
			/>
		<path class="st3" d="M554.7,169.4l-2,3.7l-1.2-0.6c-1-0.6-2.5-1.4-2.5-1.7c0-0.2,1-3,1.3-3l2.8,1L554.7,169.4z"/>
		<path class="st2" d="M552.8,173.1l-1.2-0.6c0.1-0.7,0.3-1.4,0.6-2.2l1-1.5l1.5,0.6L552.8,173.1z"/>
		<path class="st2" d="M561.5,170.1l-3.3-2.2l-3.8,1.3l-0.4-1.2c1-0.9,2.3-1.3,3.6-1.4l0.6,1c0.1-0.4,0.3-0.7,0.5-0.9
			c0.6,0.1,1.2,0.3,1.7,0.6c0.7,0.3,1.2,0.7,1.7,1.2L561.5,170.1z"/>
		<path class="st2" d="M561.7,178.1l-0.6-0.3c0.1,0.2,0.1,0.4,0.1,0.7c-1,0.8-2.3,1.2-3.6,1.2l-0.2-0.8l-0.4,0.7
			c-0.7-0.1-1.4-0.2-2-0.6l-1.4-1c0.1-0.2,0.1-0.5,0.3-0.7l-0.7,0.3c-0.9-1.1-1.4-2.4-1.6-3.8l1.5-0.7l0.9,3.8l0.4-0.9l2.8,2v-0.2
			l3-0.4l2-3l-0.7-4.1l1.5-0.4c0.7,1.2,1,2.5,0.9,3.9l-0.9,0.4l0.9,0.5c-0.1,0.5-0.3,1-0.5,1.4C562.8,176.8,562.3,177.5,561.7,178.1
			z"/>
		<path class="st3" d="M558.2,167.8L558.2,167.8l-3.8,1.3l-0.4-1.2c-0.4-1-0.7-2-0.9-3.1c0.1-0.3,2.7-1.6,2.9-1.4l1.7,3.1l0.6,1
			L558.2,167.8z"/>
		<path class="st9" d="M559.9,168.3c-2.4-1.2-5.4-0.4-6.7,2l-0.2,0.5c-1.2,2.7-0.2,5.9,2.4,7.2c2.4,1.2,5.4,0.3,6.7-2.1
			c0-0.1,0.1-0.3,0.1-0.4C563.5,172.9,562.5,169.7,559.9,168.3z M558,172.4c0.4,0.2,0.6,0.7,0.4,1.1l0,0l0,0
			c-0.1,0.4-0.5,0.6-0.9,0.5c-0.1,0-0.1,0-0.1-0.1c-0.4-0.3-0.5-0.7-0.4-1.2C557.2,172.4,557.6,172.3,558,172.4z"/>
		<path class="st2" d="M559.7,168.9c-2.2-1.1-4.7-0.2-5.9,1.9l-0.1,0.4c-1.1,2.3-0.1,5.1,2.1,6.4c2,1.1,4.6,0.3,5.6-1.7
			c0,0,0-0.1,0.1-0.1l0.2-0.4C562.8,172.9,561.9,170.1,559.7,168.9z M558,172.4c0.4,0.2,0.6,0.7,0.4,1.1l0,0l0,0
			c-0.1,0.4-0.5,0.6-0.9,0.5c-0.1,0-0.1,0-0.1-0.1c-0.4-0.3-0.5-0.7-0.4-1.2C557.2,172.4,557.6,172.3,558,172.4z"/>
		<path class="st9" d="M559.3,169.7c-1.8-0.9-4-0.1-4.9,1.7l0,0c0,0.1-0.1,0.1-0.1,0.1c-0.9,2-0.1,4.2,1.7,5.2
			c1.7,0.9,3.8,0.2,4.7-1.4l0.1-0.4C561.9,173,561.2,170.7,559.3,169.7z M558,172.4c0.4,0.2,0.6,0.7,0.4,1.1l0,0l0,0
			c-0.1,0.4-0.5,0.6-0.9,0.5c-0.1,0-0.1,0-0.1-0.1c-0.4-0.3-0.5-0.7-0.4-1.2C557.2,172.4,557.6,172.3,558,172.4z"/>
		<path class="st3" d="M560.6,173.6c0.2-1.3-0.5-2.6-1.7-3.3c-1.2-0.6-2.5-0.3-3.3,0.7c-0.2,0.2-0.4,0.5-0.5,0.8
			c-0.7,1.5-0.1,3.3,1.3,4.1c1.4,0.7,3.1,0.1,3.8-1.2v-0.2C560.4,174.2,560.5,173.9,560.6,173.6z M558,172.4
			c0.4,0.2,0.6,0.7,0.4,1.1l0,0l0,0c-0.1,0.4-0.5,0.6-0.9,0.5c-0.1,0-0.1,0-0.1-0.1c-0.4-0.3-0.5-0.7-0.4-1.2
			C557.2,172.4,557.6,172.3,558,172.4z"/>
		<path class="st2" d="M558.9,170.4c-1.2-0.6-2.5-0.3-3.3,0.7c-0.2,1.3,0.4,2.6,1.6,3.3c1.2,0.6,2.5,0.3,3.4-0.7
			C560.8,172.3,560.1,171,558.9,170.4z M557.3,173.9c-0.4-0.3-0.5-0.7-0.4-1.2c0.2-0.4,0.7-0.5,1-0.4c0.4,0.2,0.6,0.7,0.4,1.1l0,0
			l0,0C558.2,173.9,557.8,174.1,557.3,173.9C557.4,174,557.3,173.9,557.3,173.9z"/>
		<path class="st20" d="M444,157.2c-0.1,5.9-4.9,10.6-10.8,10.5l0,0l0,0l-1.7-0.1c-0.8-0.1-1.6-0.4-2.3-0.7c-2.5-1-4.4-3-5.5-5.4
			c-0.4-0.8-0.7-1.7-0.8-2.6c-0.1-0.7-0.1-1.2-0.1-1.9c0.1-5.4,4.3-10,9.7-10.4h1.1c4.2,0.1,8,2.5,9.6,6.4
			C443.7,154.2,444,155.8,444,157.2z"/>
		<path class="st21" d="M433,149.6c0,0.4-0.2,0.7-0.6,0.9c-0.5,0.2-1.2,0.1-1.4,0.6c-0.2,0.5,0.3,0.8,0.7,1c0.4,0.2,0.8,0.7,0.7,1
			c-0.1,0.4-1.7,0.1-2,0.8c-0.3,0.7,0.3,0.9,0.1,1.4c-0.1,0.4-0.6,0.5-0.9,0.4c-0.4,0-0.7-0.2-1-0.1c-0.4,0-0.8,0.3-1,0.7l-0.7,1
			c-0.6,0.9-1.6,1.4-2.6,1.4c-0.1-0.6-0.1-1.1-0.1-1.7c0.1-4.8,3.8-8.7,8.5-9.1c0.1,0.2,0.3,0.4,0.4,0.7
			C433,148.9,433.1,149.2,433,149.6z"/>
		<path class="st21" d="M436.7,157.3c-0.1-0.2-0.2-0.4-0.4-0.6c-0.9-0.9-2-1.4-3.2-1.7h-0.7c-0.2,0.1-0.4,0.3-0.4,0.6h0.1
			c0,0.7,0.2,1.3,0.6,1.8c0.1,0.2,0.3,0.4,0.5,0.6s0.5,0.2,0.7,0.1c0.4-0.1,0.5-0.6,0.9-0.7c0.4-0.1,0.6,0.1,0.9,0.3
			c0.2,0.3,0.6,0.4,0.9,0.2C436.7,157.8,436.8,157.5,436.7,157.3z"/>
		<path class="st21" d="M442.7,157.2c-0.1,5.1-4.3,9.3-9.5,9.2l0,0l0,0l-1.5-0.1l0.6-0.4c0.4-0.2,0.8-0.4,1-0.7
			c0.2-0.5,0.5-1,0.9-1.4c0.4-0.2,0.9-0.3,1.3-0.2c0.4,0.1,0.9,0.3,1.4,0.3c0.4,0,1-0.3,1.1-0.7c0.1-0.4-0.8-1.4-0.5-2
			s0.4-0.4,0.8-0.4c0.3,0,0.7-0.1,0.9-0.2s0.4-0.5,0.4-0.8c-0.4-0.1-0.4-0.7,0-1c0.4-0.2,0.7-0.3,1.1-0.4c0.6,0,1-0.5,0.9-1.1
			c0-0.3-0.1-0.6-0.4-0.7c-0.4-0.3-0.7-0.7-0.8-1.1c-0.1-0.7,0.2-1.3,0.8-1.6l0.7-0.3C442.4,154.6,442.7,155.9,442.7,157.2z"/>
		<path class="st21" d="M431.6,162.6c-0.1,0.4-0.6,0.5-0.9,0.7c-0.3,0.2-0.7,1.6-1.1,2.3c-2.2-0.9-3.9-2.5-4.9-4.7l1.1,0.1
			c0.7-0.1,1.4-0.4,2.1-0.4c1.3-0.1,2.5,0.4,3.3,1.4C431.5,162.2,431.5,162.3,431.6,162.6z"/>
		<path class="st8" d="M447.6,158.4c-2.1,2.6-10.1,7.5-20.1,9.6c-10,2.1-6.7-2.5-6.2-3.1h-0.1c-0.1,0.2-1.2,1.9,1.1,2.2
			c2.3,0.4,17.7-6,20.3-7.7c4.2-2.6,3.8-4.7,3.6-5.7c-0.1-1-1.1-2.6-2.5-2.8h-0.6c1.5-0.7,2.8-0.3,4.1,0.8
			C449.1,153.4,449.3,156.4,447.6,158.4z"/>
		<path class="st22" d="M447.3,156.6c-0.7,1.7-6,5.6-14.8,8.8c-8.8,3.1-10,2.6-11.2,1.9c-1.2-0.7-0.1-2.2,0-2.5
			c0.1-0.2-1.2,1.9,1.1,2.2c2.3,0.4,17.7-6,20.3-7.7c4.2-2.6,3.8-4.7,3.6-5.7c-0.1-1-1.1-2.6-2.5-2.8
			C447.5,151.1,448,155,447.3,156.6z"/>
		<path class="st8" d="M419.7,155.5c2,2.8,9.7,8,19.5,10.8s6.8-2.2,6.3-2.8h0.1c0.1,0.2,1.1,2-1.2,2.2c-2.2,0.2-17.4-7-19.8-8.8
			c-4-2.9-3.5-4.9-3.3-6c0.3-1.3,1.3-2.3,2.7-2.5h0.6c-1.4-0.8-2.8-0.4-4.2,0.6C418.4,150.6,418.1,153.5,419.7,155.5z"/>
		<path class="st22" d="M420.2,153.8c0.6,1.7,5.6,6,14.3,9.6c8.7,3.6,9.8,3.3,11.1,2.6c1.3-0.7,0.2-2.2,0.1-2.5
			c-0.1-0.2,1.1,2-1.2,2.2c-2.2,0.2-17.4-7-19.8-8.8c-4-2.9-3.5-4.9-3.3-6c0.3-1.3,1.3-2.3,2.7-2.5
			C420.3,148.3,419.6,152.2,420.2,153.8z"/>
		<path class="st6" d="M439.1,152.8c-0.5-1.2-1.4-2.3-2.6-3c-1.1-0.8-2.6-1.7-4-1.4c-1.4,0.2-0.9,0.9-0.4,1.2c0.5,0.4,2.2,1,3.2,1.7
			c0.9,0.8,1.8,1.6,2.6,2.5c0.2,0.3,0.7,0.3,0.9,0.1l0,0l0.1-0.2h-0.1C439.1,153.3,439.1,153.1,439.1,152.8z"/>
		<path class="st23" d="M443,126.5c0,0,8.8-7.7,10.4-8c1.5-0.2,10,7.8,10.1,8.3c0.1,0.5-14,5.9-14.1,5.9L443,126.5z"/>
		<path class="st24" d="M443,128.8c0,0-0.1-2.2,0-2.2s20.4,0.4,20.4,0.4l0.2,0.8c0,0-1.1,7.2-1.5,7.2c-0.4,0-9.3,2-9.3,2l-8.2-3
			L443,128.8z"/>
		<path class="st25" d="M445.1,133c0,0,0.1-7.8,0.2-8.3c0.1-0.4,14.6-0.5,15.2-0.2c0.6,0.3,0.6,7.6,0.6,7.6v6.2H445L445.1,133z"/>
		<path class="st23" d="M463.7,136.7c0,1.4-0.1,2.5-0.4,2.7s-19.2,0.4-19.8-0.1c-0.2-0.4-0.4-0.9-0.4-1.4c-0.3-3.3-0.3-6.4-0.1-9.7
			c0.4-0.2,4.5,1.9,7.5,3.5l3.2,1.7l3.8-2.2l6.1-3.5C463.6,127.7,463.9,133.2,463.7,136.7z"/>
		<path class="st26" d="M450.5,131.6L450.5,131.6l-7.4,6.2c-0.1-0.6-0.1-1.2-0.1-2c-0.1-3.3-0.1-7.7,0-7.7c2.5,1,5,2.1,7.4,3.4
			C450.4,131.6,450.4,131.6,450.5,131.6L450.5,131.6z"/>
		<path class="st24" d="M450.4,131.6l-7.4,4.3c0.1,0.7,0.1,1.4,0.1,2l7.3-6.2h-0.1V131.6z"/>
		<path class="st26" d="M463.7,136.7l-6.2-5.6l0.4-0.2l5.6-3.3c0,0,0.2,3.8,0.2,7C463.8,135.3,463.8,136.1,463.7,136.7z"/>
		<path class="st27" d="M459.3,126.1c-1-0.1-2-0.2-3-0.1l-4.2-0.1h-1c-1.4-0.1-2.8,0-4.3,0.1c-0.2,0-0.4,0.1-0.4,0.4
			s0.1,0.4,0.4,0.4c2.1,0.2,4.2,0.2,6.3,0.1h3.1c1,0,2.1-0.1,3.1-0.2C459.5,126.4,459.5,126.1,459.3,126.1z"/>
		<path class="st27" d="M458.6,127.7c-0.8-0.1-1.7-0.1-2.5-0.1h-7.5c-0.4-0.1-0.9,0-1.4,0.1c-0.1,0.1-0.2,0.4,0,0.4
			c0.4,0.1,0.8,0.1,1.2,0.1h7.2c0.9,0,2,0,2.9-0.1C458.7,128,458.7,127.9,458.6,127.7L458.6,127.7z"/>
		<path class="st27" d="M457.9,129.1h-7.5c-0.8-0.1-1.6,0-2.4,0.1c-0.1,0-0.2,0.1-0.2,0.2s0.1,0.2,0.2,0.2l0,0l0,0
			c0.8,0.1,1.7,0.2,2.5,0.1h6.2c0.4,0.1,0.8,0,1.2-0.1c0.1,0,0.3-0.1,0.3-0.3S458,129.1,457.9,129.1L457.9,129.1z"/>
		<path class="st24" d="M463.7,136.7l-6.2-5.6l0.4-0.2l5.9,3.8C463.8,135.3,463.8,136.1,463.7,136.7z"/>
		<path class="st19" d="M468.8,32.9c-0.6-1.1-1.7-1.8-2.9-1.8c-1.2,0-2.4,0.7-3,1.7"/>
		<path class="st19" d="M470.6,31.3c-0.9-1.8-2.7-2.9-4.7-2.9c-2-0.1-3.8,1.1-4.7,2.9"/>
		<path class="st19" d="M472.7,30.1c-1.8-3.8-6.4-5.4-10.1-3.5c-1.5,0.7-2.8,2-3.5,3.5"/>
		<path class="st19" d="M564.4,74.4c-0.6-1.1-1.7-1.8-3-1.8c-1.2,0-2.3,0.7-2.9,1.7"/>
		<path class="st19" d="M566.2,72.8c-0.9-1.7-2.8-2.9-4.7-2.9c-2-0.1-3.9,1.1-4.8,2.9"/>
		<path class="st19" d="M568.3,71.6c-1.3-2.5-3.9-4.2-6.8-4.3c-2.9,0-5.6,1.7-6.9,4.3"/>
		<path class="st19" d="M426.9,45.2c-0.6-1.1-1.7-1.7-3-1.8c-1.2,0-2.3,0.7-2.9,1.8"/>
		<path class="st19" d="M428.7,43.7c-0.9-1.8-2.7-3-4.7-3s-3.8,1.2-4.8,2.9"/>
		<path class="st19" d="M430.8,42.5c-1.9-3.8-6.5-5.3-10.3-3.4c-1.4,0.7-2.6,1.9-3.4,3.3"/>
		<path class="st28" d="M420.5,48.8c0,0,1.6-1.7,3-1.7c1.3,0.1,2.5,0.9,3.3,2c-2.2,0.2-4.3,0.3-6.5,0.1L420.5,48.8z"/>
		<path class="st29" d="M421.2,48.7c0.1-0.1,1.8-1.2,2.6-1c0.7,0.3,1.4,0.7,1.9,1.2C425.9,49.1,421.2,48.7,421.2,48.7z"/>
		<path class="st23" d="M430.4,60.2c-0.3,2-2,4.9-6.4,4.9s-6.7-1.7-7.1-5.1c-0.4-3.4,2-5,2.9-6s0.1-2.5,0.1-2.6h7.5
			c0.1,0.9,0.1,2,0.1,2.9C429.6,55.4,430.7,57.8,430.4,60.2z"/>
		<path class="st30" d="M428.2,61.9c-0.9,1.2-2.8,2-5.7,1.7c-3-0.2-4.6-2.3-4.3-5s2.8-4.5,2.8-4.5v-2.8h5.1v2.8
			c0.8,0.8,1.5,1.7,2.2,2.5C429.2,58.3,429.2,60.3,428.2,61.9z"/>
		<path class="st24" d="M425.8,57.5h-1.4c-0.5,0-0.7,0.1-0.6-0.4v-2.5c-0.1-1.2-0.1-2.3,0.1-3.5c0.1-0.5-0.8-0.5-0.7-0.1
			c0.4,2-0.1,4.2,0,6.3c0.1,0,0.1,0,0.1,0.1l0,0h-2.4c-0.2,0-0.4,0.2-0.4,0.4l0,0l0,0c-0.1,0.1-0.1,0.2,0.1,0.4l1.4,1.3
			c0.3,0.3,0.9,1.2,1.4,1.2c0.4,0,1.1-0.8,1.4-1.2l1-1c0.2-0.2,0.9-0.6,0.4-0.9L425.8,57.5z M424.3,58.9l-0.9,0.8l-0.9-0.8l-1.1-0.9
			c1.3-0.1,2.7,0.1,4.1-0.1L424.3,58.9z"/>
		<path class="st8" d="M419.6,51.6c0.2,0.2,7.8,0.2,8,0.1c0.2-1,0.2-2.1,0-3.1c-0.2-0.3-7.9-0.1-8-0.1
			C419.6,48.5,419.3,51.4,419.6,51.6z"/>
		<path class="st28" d="M427.9,48.9c-2.8-0.4-5.7,0.1-8.5,0.3c-0.3,0-0.2,0.4,0.1,0.4h4c1.4,0.1,3,0,4.4-0.2
			C428.1,49.3,428.2,49,427.9,48.9z"/>
		<path class="st28" d="M428,49.6c-2.9,0-5.8,0.4-8.7,0.4c-0.3,0-0.2,0.4,0.1,0.4c2.9-0.2,5.8-0.1,8.7-0.3
			C428.4,50.1,428.3,49.6,428,49.6z"/>
		<path class="st28" d="M428,50.5c-2.9-0.1-5.8,0.4-8.7,0.4c-0.3,0-0.2,0.4,0.1,0.4c2.9-0.2,5.8,0,8.7-0.3
			C428.4,50.9,428.3,50.5,428,50.5z"/>
		<path class="st31" d="M419.3,56.7c0,0-1.6,2.5-0.4,4.3c1.2,1.8,3.2,2.9,4.8,1.8s-0.9-1.6-2.1-2C420,60.1,419,58.4,419.3,56.7z"/>
		<path class="st4" d="M485,82.8l-1.6-0.1c0,0-0.1-4.1-0.4-4.7c-0.3-0.7-7.1-0.5-7.6-0.3c-0.5,0.2-0.4,4.9-0.4,4.9h-1.7v-1.2
			c0.1-1.7,0.1-4.7,0.5-5.2c0.4-0.5,10.2-0.2,10.8,0.4s0.4,2.8,0.4,4.6V82.8z"/>
		<path class="st1" d="M485,82.8l-1.6-0.1c0,0-0.1-4.1-0.4-4.7c-0.3-0.7-7.1-0.5-7.6-0.3c-0.5,0.2-0.4,4.9-0.4,4.9h-1.7v-1.2
			l1.1-0.3c0,0-0.4-4.1,0.3-4.1c0.7-0.1,8.8,0,9.1,0.6c0.4,0.6,0.3,3.8,0.3,3.8h0.9L485,82.8z"/>
		<path class="st32" d="M478.7,76.3"/>
		<path class="st32" d="M484.1,76.9c-0.4-0.7-1.4-0.7-2.1-0.8c-1.3-0.1-2.6-0.1-3.9-0.1c-0.3,0-0.1,0.5,0.2,0.2
			c0.5-0.4,1.3-0.5,1.9-0.1c1.4,0.7,2.5,0,3.8,1.1C484,77.2,484.2,77,484.1,76.9z"/>
		<path class="st33" d="M471.8,83.4v-1.2c1.4-0.1,2.7-0.2,4.1-0.1c0.1,0.1,0.1,1.2,0.1,1.2L471.8,83.4z"/>
		<path class="st33" d="M481.7,83.3v-1.2c1.3-0.1,2.7-0.1,4-0.1c0.1,0.4,0.1,0.9,0.1,1.3L481.7,83.3z"/>
		<path class="st34" d="M486.8,95.2c-0.8,0.7-15.6,0.8-15.8,0.4c-0.2-0.4-0.1-0.2-0.1-0.5c-0.2-2-0.4-9,0.1-11.1
			c0.1-0.4,0.2-0.6,0.4-0.6c1.9-0.7,15.1-0.7,15.6-0.2C487.4,83.6,487.6,94.4,486.8,95.2z"/>
		<path class="st35" d="M479.8,89.5c0.1-0.1,1.1-0.7,0.6-1.4c-0.4-0.7-1.4-0.9-2-0.4c-0.4,0.4-0.5,1.2-0.1,1.7l0.4,0.2
			c-0.5,0.9-1.2,2-0.9,2.2c0.9,0.1,2,0,2.9-0.1C480.8,91.1,479.8,89.5,479.8,89.5z"/>
		<path class="st36" d="M486.8,95.2c-0.8,0.7-15.6,0.8-15.8,0.4c-0.2-0.4-0.1-0.2-0.1-0.5c1.7-0.5,9.3-0.2,9.3-0.2s-3.4-0.5-3.8-1
			s7.2,0.7,7.2,0.7s0-8.5-0.4-9.1c-0.4-0.7-10.9-1.4-12.1-1.4c0.1-0.4,0.2-0.6,0.4-0.6c1.9-0.7,15.1-0.7,15.6-0.2
			C487.4,83.6,487.6,94.4,486.8,95.2z"/>
		<path class="st32" d="M484.6,78.1c0-0.1-0.1-0.3-0.1-0.4c0-0.1-0.4-0.2-0.3,0c0.1,0.1,0.1,0.3,0.1,0.4s0.1,0.3,0.1,0.4
			c0,0.1,0.1,0.1,0.1-0.1L484.6,78.1z"/>
		<path class="st4" d="M400.3,96.3c1,0.2,2,0.1,3-0.1l4.6-6.2c0.7-0.9,1.1-2,1-3.1l-0.4-8.5l-2-0.6l-0.5,5.4l-0.3,2.8
			c-0.1,1.2-0.6,2.2-1.4,3c-1.1,1-2.8,2.7-5.3,4.9C398.8,95.2,399.5,96,400.3,96.3z"/>
		<path class="st1" d="M400.3,96.3c1,0.2,2,0.1,3-0.1l4.6-6.2c0.7-0.9,1.1-2,1-3.1l-0.4-8.5l-2-0.6l-0.5,5.4l1.3,0.8
			c0,0,0.3,4.1-0.7,5.2L400.3,96.3z"/>
		<path class="st1" d="M421.2,73.1l-0.3,7.7l-1.4,0.1c-5.1,0.4-21.7,2-22.2,1.4c-0.4-0.5-0.1-10.3,0.9-10.8s13.8-1.2,21.7-1.6
			l5.6-0.3C426.2,69.8,421.2,73.1,421.2,73.1z"/>
		<polygon class="st4" points="415.6,73.2 415.7,75.4 399.8,77.3 400,73.6 		"/>
		<path class="st1" d="M404.8,88.9c0.6,1.4,2.2,2,3.5,1.4c1.4-0.6,2-2.2,1.4-3.5l0,0l0,0c-0.6-1.4-2.2-2-3.5-1.4
			C404.8,86,404.2,87.6,404.8,88.9z"/>
		<path class="st4" d="M406,88.4c0.4,0.7,1.2,1,1.9,0.7c0.7-0.4,0.9-1.2,0.7-1.9c-0.3-0.7-1.1-1-1.7-0.7c0,0.1,0,0.1-0.1,0.1l0,0
			C406,86.9,405.7,87.7,406,88.4L406,88.4z"/>
		<path class="st1" d="M406.8,88.1c0.2,0.2,0.6,0.3,0.8,0.1c0.1-0.1,0.2-0.3,0.2-0.5c0-0.3-0.2-0.5-0.5-0.5c-0.1,0-0.1,0-0.1,0
			c-0.3,0.1-0.6,0.3-0.5,0.7l0,0C406.6,87.9,406.7,88,406.8,88.1z"/>
		<path class="st37" d="M421.2,73.1l-0.3,7.7l-1.4,0.1c0.1-2.5,0.4-9.2,0.5-10.9l5.6-0.3C426.2,69.8,421.2,73.1,421.2,73.1z"/>
		<path class="st38" d="M411.3,79c0,0.4-0.3,0.7-0.7,0.7c-0.4,0.1-0.7-0.2-0.7-0.6c0-0.1,0-0.1,0-0.1c0.1-0.4,0.4-0.7,0.7-0.7
			S411.3,78.6,411.3,79z"/>
		<path class="st38" d="M414.1,79c0.1,0.3-0.1,0.7-0.4,0.7c-0.1,0-0.1,0-0.1,0h-0.1c-0.4-0.1-0.7-0.4-0.7-0.7c0-0.4,0.3-0.7,0.7-0.7
			h0.1C413.8,78.3,414.1,78.6,414.1,79z"/>
		<path class="st8" d="M530.3,121.1c0,2.1-0.9,4.1-2.6,5.4c-1.3,1-2.9,1.5-4.5,1.5c-3.8,0-6.9-3.1-6.9-6.9l0,0l0,0
			c-0.1-2.5,1.3-4.9,3.6-6.1V95.2c0-1.9,1.5-3.4,3.4-3.4l0,0l0,0l1,0.1c1.5,0.4,2.6,1.7,2.6,3.3v19.8
			C529.1,116.4,530.3,118.6,530.3,121.1z"/>
		<path class="st38" d="M525,114.9v-6.2c0-0.9-0.7-1.5-1.5-1.5h-0.1c-0.9,0-1.6,0.7-1.6,1.6l0,0l0,0v6.2c-0.1,1.2-0.6,2.2-1.4,3
			c-1.7,1.8-1.7,4.7,0.1,6.4c0.6,0.6,1.2,0.9,2,1.2c2.4,0.5,4.8-0.9,5.3-3.3l0,0c0.3-1.5-0.1-3.1-1.3-4.2
			C525.6,117.2,525,116.1,525,114.9z"/>
		<path class="st22" d="M527.7,126.5c-1.2,1-2.8,1.5-4.4,1.5c-3.8,0-6.9-3.1-6.9-6.9l0,0l0,0c-0.1-2.5,1.3-4.9,3.6-6.1V95.2
			c0-1.9,1.5-3.4,3.4-3.4l0,0l0,0l0.9,0.1c-1.2,0.2-2.9,1-3.1,3.8c-0.4,4.4-0.3,20.3-0.3,20.3s-2.8,1.7-3,4.3
			c-0.3,2.6-0.1,4.7,2.7,6.1C522.8,127.4,525.3,127.5,527.7,126.5z"/>
		<path class="st39" d="M526.6,121.1c0,0.9-0.7,1.6-1.6,1.6l0,0l0,0c-0.9,0-1.6-0.7-1.6-1.6l0,0l0,0c0-0.9,0.7-1.6,1.6-1.6l0,0l0,0
			C525.9,119.6,526.6,120.2,526.6,121.1z"/>
		<path class="st40" d="M523.5,124c-1.4,0.1-2.5-0.9-2.7-2.2l0,0v-0.4c0.1-1.3,0.7-2.5,1.6-3.4c0.1-0.2-0.1-0.5-0.2-0.4
			c-1.5,1.2-2.7,3-2.1,5c0.4,1.5,1.9,2.5,3.4,2.1l0,0h0.1C524,124.5,523.8,124,523.5,124z"/>
		<path class="st40" d="M523.3,110c-0.1-0.2-0.4-0.3-0.4,0c0,0.3-0.1,1.7-0.1,2.5c0,0.9,0.5,0.3,0.5,0L523.3,110z"/>
		<path class="st1" d="M531.4,99.8c-0.9-0.1-1.7-0.1-2.5,0.1c-0.5,0-0.5,0.6,0,0.7c0.9,0.1,1.7,0.1,2.5,0.1c0.2-0.1,0.3-0.4,0.2-0.6
			l0,0L531.4,99.8z"/>
		<path class="st1" d="M531.4,101.8h-2.5c-0.5,0.1-0.5,0.7,0,0.7h2.5C531.8,102.3,531.9,101.9,531.4,101.8z"/>
		<path class="st1" d="M531.4,104c-0.4-0.1-0.9-0.1-1.4-0.1h-1.1c-0.6,0-0.6,0.6,0,0.7h2.5c0.1,0,0.3-0.1,0.3-0.3
			C531.6,104.1,531.5,104,531.4,104z"/>
		<path class="st1" d="M531.4,106h-2.5c-0.2,0-0.4,0.2-0.4,0.4c0,0.2,0.2,0.4,0.4,0.4h2.5c0.2,0,0.4-0.2,0.4-0.4
			S531.6,106,531.4,106L531.4,106z"/>
		<path class="st1" d="M531.4,108.3h-2.5c-0.3,0.1-0.4,0.4-0.3,0.7c0.1,0.1,0.1,0.2,0.3,0.3h2.5c0.3,0,0.4-0.2,0.5-0.4
			C531.9,108.5,531.6,108.3,531.4,108.3L531.4,108.3z"/>
		<path class="st1" d="M531.4,110.5h-2.5c-0.2,0-0.4,0.2-0.4,0.4s0.2,0.4,0.4,0.4h2.5C531.9,111.4,531.9,110.6,531.4,110.5z"/>
		<path class="st1" d="M531.4,112.8h-2.5c-0.3,0.1-0.4,0.4-0.3,0.7c0.1,0.1,0.1,0.2,0.3,0.3h2.5
			C531.9,113.6,531.9,112.8,531.4,112.8z"/>
		<path class="st8" d="M479.4,72.4h-8.7l-20.8-0.3l-10.5-0.2h-1.6c0,0-0.6-12.3-0.3-12.5s13.8-0.1,13.8-0.1s0.1-8.2,0.3-10.2
			c0.1-2,14.5-11.9,14.5-11.9c1.6,0.6,13.2,12.9,13.2,12.9S480,72.3,479.4,72.4z"/>
		<path class="st41" d="M454.2,53.3c-0.7,0-0.4,5.6-0.1,5.6s5.2,0.4,5.8-0.1c0.6-0.4,0.3-5-0.1-5.4
			C459.5,53.2,455.2,53.3,454.2,53.3z"/>
		<path class="st28" d="M461.9,43.3c-0.9-0.1-0.4,1.6-0.1,1.6h6.9c0.2-0.1,0.4-1.4-0.1-1.5L461.9,43.3z"/>
		<path class="st41" d="M462.7,53.4c-0.7,0-0.4,5.6-0.1,5.6s5.1,0.4,5.7-0.1c0.6-0.4,0.4-5-0.1-5.3
			C467.8,53.3,463.7,53.4,462.7,53.4z"/>
		<path class="st41" d="M471.1,53.4c-0.7,0-0.4,5.6-0.1,5.6s5.1,0.4,5.7-0.1c0.6-0.4,0.3-5-0.1-5.4
			C476.3,53.3,472.1,53.4,471.1,53.4z"/>
		<path class="st37" d="M451.3,54.8v4.6l-10,0.1h-4.9C436.5,59.2,451.3,54.8,451.3,54.8z"/>
		<polygon class="st42" points="451.3,56 451.2,59.4 441.2,59.6 		"/>
		<path class="st28" d="M449.8,72.2L439.3,72c0-0.2-0.1-1-0.1-2.1V69c0-0.4-0.1-0.9-0.1-1.4v-2.8c0-0.4,0.1-0.7,0.1-1
			c-0.1-0.8,0-1.5,0.1-2.3c0.3-0.1,9.5-0.1,10,0.3c0.2,0.6,0.3,1.2,0.3,1.9c0,0.4,0.3,0.9,0.3,1.4s0.2,0.9,0.2,1.4l0,0
			c0,0.5-0.1,1-0.1,1.5c0,0.5-0.1,0.6-0.1,0.9c0,0.3-0.1,0.9-0.1,1.4C449.9,70.8,449.9,71.6,449.8,72.2z"/>
		<polygon class="st37" points="466,37.3 449.8,50.7 449,49.5 465.9,35.4 481.7,49.9 480,50.9 		"/>
		<path class="st42" d="M477.5,72.5h-6.8c-0.1-2.2-0.4-8.9-0.1-9.3s6-0.5,6.4-0.3C477.4,63.2,477.4,70,477.5,72.5z"/>
		<path class="st43" d="M449.8,65.1c-3.5,0.1-7-0.1-10.5-0.2v-1c3.5-0.1,6.9-0.3,10.4-0.1C449.7,64.1,449.7,64.6,449.8,65.1z"/>
		<path class="st43" d="M449.8,67.9c-2.1,0-4.2-0.1-6.2-0.2c-2-0.1-2.9,0.3-4.3,0.2v-0.6l0,0c1.5-0.4,3.1-0.5,4.7-0.4
			c1.9,0,3.8-0.4,5.8-0.3C449.8,67.1,449.8,67.5,449.8,67.9z"/>
		<path class="st43" d="M449.8,70.2c-3.5,0-7-0.1-10.6-0.3V69c3.5-0.1,7-0.2,10.6-0.2V70.2z"/>
		<path class="st44" d="M527.9,52.5c-0.8,0.4,0,9.3,3.2,15.1c3.2,5.9,6.6,7.6,7.7,7.5c1.2-0.1,6.1-4.1,8.3-8.6s2.8-11.5,2.9-13.2
			C550,51.7,536.1,48.1,527.9,52.5z"/>
		<path class="st45" d="M529.5,53.8c0.1-0.7,3-2.4,9.2-2.2c6.2,0.1,9.5,1.8,9.7,2.3c0.2,0.5-1.8,16.9-9.6,20
			C533.3,71.6,528.5,60.3,529.5,53.8z"/>
		<path class="st46" d="M538.8,61.1h-6.9c-0.5-2.2-0.8-4.5-0.9-6.8h0.4c2.4-0.7,4.9-1.1,7.4-1.1C538.7,55.3,538.8,58.2,538.8,61.1z"
			/>
		<path class="st8" d="M539,71.8c-4.1-2.2-6.2-6.7-7.1-10.6h6.9L539,71.8z"/>
		<path class="st46" d="M545.7,61.1c-1.4,4.9-4.3,8.8-6.7,10.6l-0.1-10.6H545.7z"/>
		<path class="st8" d="M545.7,61.1h-6.9c0-2.9-0.1-5.9-0.1-7.9c2.6-0.1,5.3,0.4,7.7,1.3C546.6,56.8,546.3,59,545.7,61.1z"/>
		<ellipse class="st47" cx="486.5" cy="198" rx="31.7" ry="7.2"/>
	</g>
</g>
</svg>
