<svg width="84" height="84" viewBox="0 0 84 84" fill="none" xmlns="http://www.w3.org/2000/svg">
<ellipse cx="41.8698" cy="42" rx="41.8698" ry="42" fill="url(#paint0_linear_86_83)"/>
<path d="M43.8756 50.9059C48.8608 50.9105 52.9014 46.8791 52.9014 41.8986C52.9014 36.9181 48.87 32.8775 43.8848 32.8775C38.8997 32.8775 34.8729 36.9181 34.8775 41.9078C34.8821 46.8976 38.9135 50.9013 43.8756 50.9059ZM43.8894 48.3258C40.3833 48.3258 37.476 45.4324 37.453 41.9124C37.43 38.3924 40.3648 35.4576 43.8894 35.453C47.4141 35.4484 50.3028 38.351 50.3259 41.871C50.3489 45.391 47.4141 48.3258 43.8894 48.3258Z" fill="#EA5252" stroke="#FF0000" stroke-miterlimit="10"/>
<path d="M21 44.8105C21.2764 45.4232 21.774 45.6997 22.4145 45.8471C23.8151 46.165 25.2111 46.5336 26.6071 46.8745C26.8513 46.9344 26.9987 47.0496 27.0725 47.303C27.2783 47.9711 27.5451 48.6189 27.8695 49.2381C27.9985 49.4777 27.9847 49.6666 27.8373 49.9016C27.0632 51.1686 26.303 52.4448 25.5428 53.721C25.0314 54.578 25.0913 55.0618 25.8054 55.7759L29.0214 58.9918C29.7263 59.6967 30.2101 59.752 31.0762 59.2314C32.3525 58.4712 33.6287 57.711 34.8957 56.937C35.1169 56.7987 35.2919 56.7849 35.5223 56.9001C36.1275 57.2214 36.7615 57.4851 37.4159 57.6879C37.7108 57.7709 37.8444 57.9367 37.9181 58.2362C38.2683 59.7505 38.6338 61.2602 39.0147 62.7652C39.2312 63.6406 39.6413 63.9539 40.5351 63.9539H45.253C46.1422 63.9539 46.5523 63.636 46.7688 62.756C47.1466 61.2479 47.5136 59.7382 47.8699 58.227C47.9345 57.9598 48.0404 57.7801 48.3307 57.6972C48.9882 57.5008 49.6242 57.2384 50.2289 56.9139C50.4869 56.7757 50.6804 56.8126 50.9292 56.9646C52.1824 57.734 53.4494 58.4804 54.7118 59.236C55.5734 59.752 56.0572 59.6921 56.7667 58.9826L60.0149 55.739C60.6829 55.0664 60.7428 54.5642 60.2591 53.7487C59.4988 52.4725 58.7386 51.1962 57.96 49.9292C57.8126 49.685 57.7757 49.4869 57.9139 49.2289C58.2396 48.6254 58.5006 47.9891 58.6926 47.3307C58.7801 47.0404 58.9552 46.9344 59.227 46.8699C60.7505 46.5075 62.274 46.1374 63.7975 45.7596C64.6222 45.5522 64.9493 45.133 64.9539 44.299V39.4936C64.9493 38.6551 64.6268 38.2312 63.8067 38.0239C62.2863 37.6461 60.7628 37.2759 59.2362 36.9135C58.9414 36.8444 58.7709 36.7154 58.6834 36.4159C58.4841 35.7609 58.2218 35.1267 57.9001 34.5223C57.7803 34.2919 57.7987 34.1168 57.9324 33.8957C58.7064 32.6287 59.4666 31.3525 60.2314 30.0808C60.752 29.21 60.6921 28.7263 59.9918 28.0214L56.7437 24.7732C56.071 24.1051 55.5642 24.036 54.7579 24.5198C53.4679 25.2892 52.1778 26.054 50.9016 26.8373C50.6666 26.9847 50.4777 26.9985 50.2381 26.8741C49.6457 26.5579 49.0238 26.3002 48.3814 26.1047C48.0681 26.0079 47.9298 25.8375 47.8561 25.5242C47.5244 24.1236 47.1558 22.7321 46.8287 21.3315C46.6859 20.7233 46.3864 20.2626 45.8105 20H39.973C39.3925 20.2626 39.0976 20.7233 38.9548 21.3315C38.623 22.746 38.2545 24.1512 37.9181 25.5656C37.849 25.8421 37.7246 26.0033 37.4436 26.0909C36.8008 26.2815 36.1787 26.5362 35.5868 26.8511C35.3196 26.9939 35.1169 26.9847 34.8496 26.8188C33.5872 26.0402 32.3064 25.2846 31.0302 24.5244C30.2193 24.0406 29.7125 24.1005 29.0444 24.7686L25.8008 28.0167C25.0913 28.7217 25.0314 29.21 25.5428 30.0716C26.2984 31.3294 27.0448 32.5964 27.8188 33.8496C27.9847 34.1168 27.9939 34.3242 27.8511 34.5868C27.5328 35.1938 27.2721 35.8293 27.0725 36.485C26.9941 36.7384 26.8467 36.849 26.6025 36.9089C25.2203 37.2452 23.8427 37.6138 22.4559 37.9317C21.8063 38.0792 21.281 38.3418 21 38.973V44.8105ZM42.8894 22.5755C43.3041 22.5755 43.7187 22.5893 44.1334 22.5709C44.3822 22.5571 44.4743 22.6492 44.5342 22.8934C44.8614 24.2618 45.2299 25.6255 45.5479 26.9985C45.7091 27.7034 46.0915 28.1319 46.7872 28.3116C47.8225 28.5871 48.817 28.9976 49.7451 29.5326C50.3533 29.8827 50.9154 29.8689 51.5143 29.4957C52.6938 28.7677 53.8963 28.0766 55.0712 27.3441C55.3615 27.1644 55.5227 27.1966 55.7485 27.4362C56.2645 27.9937 56.8082 28.5282 57.3564 29.0488C57.5776 29.2561 57.6237 29.4128 57.4486 29.6938C56.7114 30.8825 56.0111 32.0942 55.2739 33.2829C54.9146 33.8681 54.8961 34.4209 55.2371 35.0153C55.7759 35.9415 56.1866 36.9366 56.458 37.9732C56.6423 38.6873 57.08 39.0743 57.8034 39.2356C59.2224 39.5535 60.6276 39.9221 62.0421 40.2492C62.3001 40.3091 62.3923 40.4105 62.383 40.6777C62.3646 41.4932 62.3692 42.3087 62.383 43.1242C62.3876 43.373 62.3001 43.4743 62.0651 43.525C60.6369 43.866 59.2178 44.2299 57.7849 44.5525C57.08 44.7091 56.6515 45.0915 56.4672 45.7872C56.1958 46.8238 55.7851 47.8189 55.2463 48.7451C54.9007 49.3533 54.9146 49.9154 55.2831 50.5143C56.0203 51.703 56.7252 52.9148 57.4578 54.1081C57.6191 54.3661 57.5914 54.5135 57.3749 54.7208C56.8036 55.2599 56.2415 55.8128 55.707 56.3887C55.4905 56.619 55.3384 56.6006 55.0942 56.4486C53.9009 55.716 52.6892 55.0111 51.5005 54.2785C50.9154 53.9192 50.3671 53.8961 49.7682 54.2371C48.8291 54.7797 47.822 55.1949 46.7734 55.4718C46.0731 55.6561 45.7045 56.0984 45.5479 56.7987C45.2299 58.2178 44.8614 59.6276 44.5296 61.0421C44.4743 61.2955 44.3776 61.3922 44.1058 61.3876C43.2903 61.3692 42.4748 61.3692 41.6593 61.383C41.4105 61.3922 41.3091 61.3047 41.2538 61.0697C40.9175 59.6415 40.5535 58.2178 40.231 56.7849C40.0743 56.0846 39.6919 55.6515 38.9962 55.4718C37.961 55.1963 36.9665 54.7858 36.0383 54.2509C35.4302 53.9007 34.8681 53.9145 34.2691 54.2831C33.0804 55.0203 31.8687 55.7252 30.6754 56.4578C30.4174 56.619 30.2699 56.596 30.0626 56.3749C29.5236 55.8036 28.9707 55.2461 28.3948 54.707C28.1644 54.4951 28.1782 54.343 28.3303 54.0942C29.072 52.8917 29.7862 51.6708 30.5234 50.4637C30.8643 49.9108 30.8827 49.3763 30.5648 48.8096C30.0157 47.8564 29.5929 46.8357 29.307 45.7734C29.1319 45.0961 28.7127 44.7137 28.0262 44.5525C26.6532 44.2345 25.2894 43.866 23.9164 43.5388C23.663 43.4789 23.5617 43.3914 23.5663 43.1196C23.5893 42.3041 23.5847 41.4886 23.5709 40.6731C23.5617 40.4059 23.6492 40.3045 23.9118 40.2446C25.2802 39.9175 26.644 39.5489 28.017 39.231C28.7035 39.0697 29.1273 38.6919 29.307 38.0147C29.5859 36.9652 30.001 35.9569 30.5418 35.0153C30.8827 34.4209 30.8689 33.8681 30.5095 33.2875C29.7724 32.0942 29.072 30.8825 28.3349 29.6938C28.1598 29.4174 28.1966 29.2607 28.4224 29.0488C28.9845 28.5189 29.5328 27.9753 30.058 27.4086C30.2838 27.169 30.445 27.1828 30.7076 27.3441C31.8963 28.0812 33.1081 28.7816 34.3014 29.5141C34.8681 29.8643 35.4117 29.8827 35.9923 29.5556C36.9451 29.0068 37.9659 28.5855 39.0285 28.3024C39.7104 28.1227 40.0743 27.685 40.231 27.0031C40.5489 25.6301 40.9175 24.2664 41.2492 22.8934C41.3045 22.6584 41.392 22.5571 41.6454 22.5709C42.0601 22.5893 42.4748 22.5755 42.8894 22.5755Z" fill="#EA5252" stroke="#FF0000" stroke-miterlimit="10"/>
<defs>
<linearGradient id="paint0_linear_86_83" x1="74.319" y1="2.14197e-06" x2="41.6943" y2="83.9318" gradientUnits="userSpaceOnUse">
<stop stop-color="#FFD3D3"/>
<stop offset="1" stop-color="#FFEFF0"/>
</linearGradient>
</defs>
</svg>
