<svg width="25" height="22" viewBox="0 0 25 22" fill="none" xmlns="http://www.w3.org/2000/svg">
<path d="M8.30071 20.304C8.01888 20.304 7.72696 20.2411 7.46526 20.1154C6.89154 19.8459 6.53927 19.307 6.53927 18.7322V17.4569C3.49953 17.1785 1.50659 15.1845 1.50659 12.3283V6.93934C1.50659 3.84966 3.83169 1.7749 7.29417 1.7749H17.3595C20.822 1.7749 23.1471 3.84966 23.1471 6.93934V12.3283C23.1471 15.418 20.822 17.4927 17.3595 17.4927H13.5649L9.27702 20.0436C8.98512 20.2143 8.64293 20.304 8.30071 20.304ZM7.29417 3.11316C4.69731 3.11316 3.0164 4.61309 3.0164 6.93035V12.3194C3.0164 14.6367 4.69731 16.1366 7.29417 16.1366C7.70685 16.1366 8.04908 16.442 8.04908 16.8102V18.7233C8.04908 18.8401 8.1296 18.894 8.17992 18.9209C8.23026 18.9478 8.33091 18.9748 8.44163 18.9119L12.9207 16.2534C13.0415 16.1815 13.1925 16.1366 13.3435 16.1366H17.3696C19.9665 16.1366 21.6474 14.6367 21.6474 12.3194V6.93035C21.6474 4.61309 19.9665 3.11316 17.3696 3.11316H7.29417Z" fill="#9197B3"/>
<path d="M12.3266 11.1338C11.9139 11.1338 11.5717 10.8284 11.5717 10.4601V10.2715C11.5717 9.22966 12.4272 8.7177 12.7493 8.5201C13.1218 8.29556 13.2425 8.14288 13.2425 7.90936C13.2425 7.46028 12.8299 7.092 12.3266 7.092C11.8233 7.092 11.4106 7.46028 11.4106 7.90936C11.4106 8.27761 11.0684 8.58298 10.6557 8.58298C10.2431 8.58298 9.90088 8.27761 9.90088 7.90936C9.90088 6.7148 10.9879 5.74475 12.3266 5.74475C13.6653 5.74475 14.7523 6.7148 14.7523 7.90936C14.7523 8.93327 13.9069 9.44522 13.5948 9.63384C13.2023 9.86736 13.0815 10.02 13.0815 10.2715V10.4601C13.0815 10.8374 12.7393 11.1338 12.3266 11.1338Z" fill="#9197B3"/>
<path d="M12.3268 13.3704C11.9041 13.3704 11.5719 13.065 11.5719 12.6968C11.5719 12.3285 11.9141 12.0231 12.3268 12.0231C12.7395 12.0231 13.0817 12.3285 13.0817 12.6968C13.0817 13.065 12.7495 13.3704 12.3268 13.3704Z" fill="#9197B3"/>
</svg>
