<svg width="25" height="23" viewBox="0 0 25 23" fill="none" xmlns="http://www.w3.org/2000/svg">
<path d="M15.0987 21.0257H9.05951C7.73089 21.0257 6.6237 20.9089 5.68762 20.6574C5.3454 20.5676 5.12396 20.2712 5.14409 19.9569C5.39572 17.2714 8.44553 15.1606 12.0791 15.1606C15.7127 15.1606 18.7524 17.2624 19.0141 19.9569C19.0443 20.2802 18.8229 20.5676 18.4706 20.6574C17.5345 20.9089 16.4273 21.0257 15.0987 21.0257ZM6.76461 19.5078C7.42893 19.6245 8.18383 19.6784 9.05951 19.6784H15.0987C15.9744 19.6784 16.7293 19.6245 17.3936 19.5078C16.8601 17.7833 14.6558 16.5078 12.0791 16.5078C9.50239 16.5078 7.29808 17.7833 6.76461 19.5078Z" fill="#9197B3"/>
<path d="M15.098 2.38898H9.05881C4.02613 2.38898 2.01306 4.1853 2.01306 8.67612V14.0651C2.01306 17.4602 3.16051 19.3194 5.89829 20.0109C6.11973 17.6757 8.80718 15.8345 12.0784 15.8345C15.3497 15.8345 18.0371 17.6757 18.2586 20.0109C20.9963 19.3194 22.1438 17.4602 22.1438 14.0651V8.67612C22.1438 4.1853 20.1307 2.38898 15.098 2.38898ZM12.0784 13.3196C10.0855 13.3196 8.47502 11.8736 8.47502 10.0952C8.47502 8.31687 10.0855 6.8798 12.0784 6.8798C14.0714 6.8798 15.6818 8.31687 15.6818 10.0952C15.6818 11.8736 14.0714 13.3196 12.0784 13.3196Z" stroke="#9197B3" stroke-width="1.5" stroke-linecap="round" stroke-linejoin="round"/>
<path d="M12.0784 13.9933C9.67277 13.9933 7.72009 12.2418 7.72009 10.0952C7.72009 7.94863 9.67277 6.20618 12.0784 6.20618C14.484 6.20618 16.4367 7.94863 16.4367 10.0952C16.4367 12.2418 14.484 13.9933 12.0784 13.9933ZM12.0784 7.55342C10.5082 7.55342 9.2299 8.69411 9.2299 10.0952C9.2299 11.5053 10.5082 12.646 12.0784 12.646C13.6486 12.646 14.9269 11.5053 14.9269 10.0952C14.9269 8.69411 13.6486 7.55342 12.0784 7.55342Z" fill="#9197B3"/>
</svg>
