<svg width="22" height="22" viewBox="0 0 22 22" fill="none" xmlns="http://www.w3.org/2000/svg">
<path d="M1 12.2893C1.12579 12.5681 1.3522 12.6939 1.64361 12.761C2.28092 12.9057 2.91614 13.0734 3.55136 13.2285C3.66247 13.2558 3.72956 13.3082 3.7631 13.4235C3.85675 13.7275 3.97816 14.0222 4.12579 14.304C4.18449 14.413 4.1782 14.499 4.11111 14.6059C3.75891 15.1824 3.413 15.7631 3.06709 16.3438C2.83438 16.7338 2.86164 16.9539 3.18658 17.2788L4.6499 18.7421C4.97065 19.0629 5.19078 19.0881 5.58491 18.8512C6.16562 18.5052 6.74633 18.1593 7.32285 17.8071C7.42348 17.7442 7.50314 17.7379 7.60797 17.7904C7.88333 17.9365 8.17181 18.0566 8.4696 18.1488C8.60377 18.1866 8.66457 18.2621 8.69811 18.3983C8.85744 19.0874 9.02376 19.7743 9.19706 20.4591C9.2956 20.8574 9.48218 21 9.88889 21H12.0356C12.4403 21 12.6268 20.8553 12.7254 20.4549C12.8973 19.7687 13.0643 19.0818 13.2264 18.3941C13.2558 18.2725 13.304 18.1908 13.4361 18.153C13.7353 18.0637 14.0246 17.9443 14.2998 17.7966C14.4172 17.7338 14.5052 17.7505 14.6184 17.8197C15.1887 18.1698 15.7652 18.5094 16.3396 18.8532C16.7317 19.0881 16.9518 19.0608 17.2746 18.7379L18.7526 17.2621C19.0566 16.956 19.0839 16.7275 18.8637 16.3564C18.5178 15.7757 18.1719 15.195 17.8176 14.6184C17.7505 14.5073 17.7338 14.4172 17.7966 14.2998C17.9449 14.0252 18.0636 13.7357 18.1509 13.4361C18.1908 13.304 18.2704 13.2558 18.3941 13.2264C19.0874 13.0615 19.7806 12.8931 20.4738 12.7212C20.8491 12.6268 20.9979 12.4361 21 12.0566V9.87002C20.9979 9.48847 20.8512 9.2956 20.478 9.20126C19.7862 9.02935 19.0929 8.86094 18.3983 8.69602C18.2642 8.66457 18.1866 8.60587 18.1468 8.4696C18.0561 8.17154 17.9367 7.88297 17.7904 7.60797C17.7358 7.50315 17.7442 7.42348 17.805 7.32285C18.1572 6.74633 18.5031 6.16562 18.8512 5.587C19.088 5.19078 19.0608 4.97065 18.7421 4.6499L17.2642 3.17191C16.9581 2.86792 16.7275 2.83648 16.3606 3.0566C15.7736 3.40671 15.1866 3.75472 14.6059 4.11111C14.499 4.1782 14.413 4.18449 14.304 4.12788C14.0344 3.98397 13.7515 3.86671 13.4591 3.77778C13.3166 3.73375 13.2537 3.65619 13.2201 3.51363C13.0692 2.87631 12.9015 2.24319 12.7526 1.60587C12.6876 1.32914 12.5514 1.1195 12.2893 1H9.63312C9.36897 1.1195 9.2348 1.32914 9.16981 1.60587C9.01887 2.24948 8.85115 2.88889 8.69811 3.5325C8.66667 3.65828 8.61006 3.73166 8.48218 3.77149C8.18969 3.85823 7.90665 3.97411 7.63732 4.1174C7.51572 4.18239 7.42348 4.1782 7.30189 4.10273C6.72746 3.74843 6.14465 3.40461 5.56394 3.0587C5.19497 2.83858 4.96436 2.86583 4.66038 3.16981L3.18449 4.6478C2.86164 4.96855 2.83438 5.19078 3.06709 5.58281C3.4109 6.15514 3.75052 6.73166 4.10273 7.30189C4.1782 7.42348 4.18239 7.51782 4.1174 7.63732C3.97256 7.91352 3.85394 8.20269 3.7631 8.50105C3.72746 8.61635 3.66038 8.66667 3.54927 8.69392C2.92034 8.84696 2.2935 9.01468 1.66247 9.15933C1.36688 9.22642 1.12788 9.34591 1 9.63312V12.2893ZM10.9602 2.17191C11.1488 2.17191 11.3375 2.1782 11.5262 2.16981C11.6394 2.16352 11.6813 2.20545 11.7086 2.31656C11.8574 2.9392 12.0252 3.55975 12.1698 4.18449C12.2432 4.50524 12.4172 4.70021 12.7338 4.78197C13.2048 4.90733 13.6573 5.09412 14.0797 5.33753C14.3564 5.49686 14.6122 5.49057 14.8847 5.32075C15.4214 4.98952 15.9686 4.67505 16.5031 4.34172C16.6352 4.25996 16.7086 4.27463 16.8113 4.38365C17.0461 4.63732 17.2935 4.8805 17.543 5.1174C17.6436 5.21174 17.6646 5.28302 17.5849 5.4109C17.2495 5.95178 16.9308 6.50314 16.5954 7.04403C16.4319 7.31027 16.4235 7.56185 16.5786 7.83229C16.8238 8.25375 17.0107 8.70651 17.1342 9.1782C17.218 9.50314 17.4172 9.67925 17.7463 9.75262C18.392 9.89728 19.0314 10.065 19.6751 10.2138C19.7925 10.2411 19.8344 10.2872 19.8302 10.4088C19.8218 10.7799 19.8239 11.1509 19.8302 11.522C19.8323 11.6352 19.7925 11.6813 19.6855 11.7044C19.0356 11.8595 18.3899 12.0252 17.7379 12.1719C17.4172 12.2432 17.2222 12.4172 17.1384 12.7338C17.0149 13.2054 16.828 13.6582 16.5828 14.0797C16.4256 14.3564 16.4319 14.6122 16.5996 14.8847C16.935 15.4256 17.2558 15.9769 17.5891 16.5199C17.6625 16.6373 17.6499 16.7044 17.5514 16.7987C17.2914 17.044 17.0356 17.2956 16.7925 17.5577C16.6939 17.6625 16.6247 17.6541 16.5136 17.5849C15.9706 17.2516 15.4193 16.9308 14.8784 16.5975C14.6122 16.434 14.3627 16.4235 14.0901 16.5786C13.6629 16.8255 13.2046 17.0145 12.7275 17.1405C12.4088 17.2243 12.2411 17.4256 12.1698 17.7442C12.0252 18.3899 11.8574 19.0314 11.7065 19.6751C11.6813 19.7904 11.6373 19.8344 11.5136 19.8323C11.1426 19.8239 10.7715 19.8239 10.4004 19.8302C10.2872 19.8344 10.2411 19.7945 10.2159 19.6876C10.0629 19.0377 9.89727 18.3899 9.75052 17.7379C9.67924 17.4193 9.50524 17.2222 9.18868 17.1405C8.71762 17.0151 8.2651 16.8283 7.84277 16.5849C7.56604 16.4256 7.31027 16.4319 7.03774 16.5996C6.49686 16.935 5.94549 17.2558 5.40252 17.5891C5.28512 17.6625 5.21803 17.652 5.12369 17.5514C4.87841 17.2914 4.62683 17.0377 4.36478 16.7925C4.25996 16.696 4.26625 16.6268 4.33543 16.5136C4.67296 15.9665 4.9979 15.4109 5.33333 14.8616C5.48847 14.6101 5.49686 14.3669 5.3522 14.109C5.10234 13.6753 4.90995 13.2108 4.77987 12.7275C4.70021 12.4193 4.50943 12.2453 4.19706 12.1719C3.57233 12.0273 2.95178 11.8595 2.32704 11.7107C2.21174 11.6834 2.16562 11.6436 2.16771 11.5199C2.1782 11.1488 2.1761 10.7778 2.16981 10.4067C2.16562 10.2851 2.20545 10.239 2.32495 10.2117C2.94759 10.0629 3.56813 9.89518 4.19287 9.75053C4.50524 9.67715 4.69811 9.50524 4.77987 9.19707C4.90677 8.71956 5.09565 8.26073 5.34172 7.83229C5.49686 7.56185 5.49057 7.31027 5.32704 7.04612C4.99161 6.50315 4.67296 5.95178 4.33753 5.4109C4.25786 5.28512 4.27463 5.21384 4.37736 5.1174C4.63312 4.87631 4.8826 4.62893 5.12159 4.37107C5.22432 4.26205 5.29769 4.26834 5.41719 4.34172C5.95807 4.67715 6.50943 4.99581 7.05241 5.32914C7.31027 5.48847 7.55765 5.49686 7.8218 5.34801C8.25538 5.0983 8.71987 4.90658 9.20335 4.77778C9.51363 4.69602 9.67924 4.49686 9.75052 4.18658C9.89518 3.56185 10.0629 2.9413 10.2138 2.31656C10.239 2.20964 10.2788 2.16352 10.3941 2.16981C10.5828 2.1782 10.7715 2.17191 10.9602 2.17191Z" fill="#FFFFFF" stroke="#FFFFFF" stroke-width="0.2" stroke-miterlimit="10"/>
<path d="M10.8896 14.7932C13.0446 14.7952 14.7912 13.0525 14.7912 10.8996C14.7912 8.74667 13.0485 7.00003 10.8936 7.00003C8.73868 7.00003 6.99801 8.74667 7 10.9036C7.00199 13.0605 8.74466 14.7912 10.8896 14.7932ZM10.8956 13.6779C9.37998 13.6779 8.12327 12.4272 8.11331 10.9056C8.10336 9.38399 9.37201 8.11533 10.8956 8.11334C12.4192 8.11135 13.6679 9.36606 13.6779 10.8877C13.6878 12.4092 12.4192 13.6779 10.8956 13.6779Z" fill="#FFFFFF" stroke="#FFFFFF" stroke-width="0.2" stroke-miterlimit="10"/>
</svg>
