<svg width="25" height="22" viewBox="0 0 25 22" fill="none" xmlns="http://www.w3.org/2000/svg">
<path d="M11.0768 15.4355V17.2588C11.0768 18.8037 9.4663 20.0521 7.48342 20.0521C5.50055 20.0521 3.88 18.8037 3.88 17.2588V15.4355C3.88 16.9804 5.49048 18.0761 7.48342 18.0761C9.4663 18.0761 11.0768 16.9714 11.0768 15.4355Z" stroke="#FFFFFF" stroke-width="1.5" stroke-linecap="round" stroke-linejoin="round"/>
<path d="M11.0752 12.9653C11.0752 13.4144 10.9343 13.8275 10.6927 14.1868C10.0988 15.058 8.88091 15.6059 7.47176 15.6059C6.06261 15.6059 4.84469 15.049 4.25083 14.1868C4.00926 13.8275 3.86841 13.4144 3.86841 12.9653C3.86841 12.1929 4.271 11.5013 4.91519 10.9983C5.56943 10.4863 6.46521 10.181 7.46168 10.181C8.45815 10.181 9.354 10.4953 10.0082 10.9983C10.6726 11.4923 11.0752 12.1929 11.0752 12.9653Z" stroke="#FFFFFF" stroke-width="1.5" stroke-linecap="round" stroke-linejoin="round"/>
<path d="M11.0768 12.9653V15.4352C11.0768 16.9801 9.4663 18.0758 7.48342 18.0758C5.50055 18.0758 3.88 16.9711 3.88 15.4352V12.9653C3.88 11.4204 5.49048 10.172 7.48342 10.172C8.47989 10.172 9.37574 10.4864 10.03 10.9893C10.6742 11.4923 11.0768 12.1929 11.0768 12.9653Z" stroke="#FFFFFF" stroke-width="1.5" stroke-linecap="round" stroke-linejoin="round"/>
<path d="M22.3987 10.145V11.9953C22.3987 12.4893 21.9559 12.8933 21.3922 12.9113H19.4193C18.3322 12.9113 17.3359 12.2018 17.2453 11.2317C17.1849 10.6659 17.4263 10.136 17.8491 9.76773C18.2215 9.42643 18.7349 9.22888 19.2986 9.22888H21.3922C21.9559 9.24685 22.3987 9.65097 22.3987 10.145Z" stroke="#FFFFFF" stroke-width="1.5" stroke-linecap="round" stroke-linejoin="round"/>
<path d="M2.26794 9.72288V7.92655C2.26794 5.48354 3.91866 3.77703 6.48533 3.48962C6.74703 3.45369 7.01879 3.43573 7.30062 3.43573H16.3594C16.6211 3.43573 16.8728 3.4447 17.1144 3.48063C19.7112 3.75008 21.3921 5.46558 21.3921 7.92655V9.22889H19.2985C18.7349 9.22889 18.2215 9.42648 17.8491 9.76778C17.4264 10.136 17.1848 10.6659 17.2452 11.2318C17.3358 12.2018 18.3323 12.9114 19.4193 12.9114H21.3921V14.2137C21.3921 16.9082 19.3791 18.7045 16.3594 18.7045H13.8431" stroke="#FFFFFF" stroke-width="1.5" stroke-linecap="round" stroke-linejoin="round"/>
</svg>
