<svg width="25" height="22" viewBox="0 0 25 22" fill="none" xmlns="http://www.w3.org/2000/svg">
<path d="M15.098 20.5434H9.05883C3.59334 20.5434 1.25818 18.4596 1.25818 13.5826V8.19362C1.25818 3.31659 3.59334 1.23285 9.05883 1.23285H15.098C20.5635 1.23285 22.8987 3.31659 22.8987 8.19362V13.5826C22.8987 18.4596 20.5635 20.5434 15.098 20.5434ZM9.05883 2.58009C4.4187 2.58009 2.76798 4.05308 2.76798 8.19362V13.5826C2.76798 17.7231 4.4187 19.1961 9.05883 19.1961H15.098C19.7382 19.1961 21.3889 17.7231 21.3889 13.5826V8.19362C21.3889 4.05308 19.7382 2.58009 15.098 2.58009H9.05883Z" fill="#FFFFFF"/>
<path d="M12.079 11.8579C11.9481 11.8579 11.8173 11.8309 11.6965 11.7681L6.36187 9.01969C5.99952 8.83108 5.87871 8.41792 6.09009 8.10356C6.30146 7.78023 6.76449 7.67245 7.11677 7.86106L12.0689 10.4208L16.9909 7.87902C17.3532 7.69041 17.8162 7.80717 18.0175 8.12153C18.2189 8.43588 18.0981 8.85802 17.7458 9.03765L12.4514 11.7681C12.3407 11.822 12.2098 11.8579 12.079 11.8579Z" fill="#FFFFFF"/>
<path d="M12.0784 16.7442C11.6657 16.7442 11.3235 16.4389 11.3235 16.0706V11.1846C11.3235 10.8164 11.6657 10.511 12.0784 10.511C12.4911 10.511 12.8333 10.8164 12.8333 11.1846V16.0706C12.8333 16.4389 12.4911 16.7442 12.0784 16.7442Z" fill="#FFFFFF"/>
<path d="M12.0786 16.9506C11.4949 16.9506 10.9212 16.8338 10.4582 16.6093L7.23725 15.0106C6.27098 14.5345 5.52612 13.3939 5.52612 12.4059V9.3611C5.52612 8.38211 6.28104 7.24143 7.23725 6.75643L10.4582 5.1577C11.3842 4.69963 12.7732 4.69963 13.6992 5.1577L16.9201 6.75643C17.8864 7.23245 18.6313 8.37313 18.6313 9.3611V12.4059C18.6313 13.3849 17.8763 14.5255 16.9201 15.0106L13.6992 16.6093C13.2362 16.8428 12.6624 16.9506 12.0786 16.9506ZM12.0786 6.17262C11.7465 6.17262 11.4244 6.22651 11.1929 6.34327L7.97204 7.942C7.47883 8.18451 7.03593 8.86711 7.03593 9.3611V12.4059C7.03593 12.9088 7.47883 13.5825 7.97204 13.825L11.1929 15.4237C11.6559 15.6572 12.5014 15.6572 12.9644 15.4237L16.1853 13.825C16.6785 13.5825 17.1215 12.8999 17.1215 12.4059V9.3611C17.1215 8.85814 16.6785 8.18451 16.1853 7.942L12.9644 6.34327C12.7329 6.22651 12.4108 6.17262 12.0786 6.17262Z" fill="#FFFFFF"/>
</svg>
